<?xml version="1.0" encoding="UTF-8"?>
<svg width="28px" height="24px" viewBox="0 0 28 24" version="1.1" xmlns="http://www.w3.org/2000/svg" xmlns:xlink="http://www.w3.org/1999/xlink">
     
    <title>Glyphs / 2ad</title>
     
    <g id="01-|-Volleyball-" stroke="none" stroke-width="1" fill="none" fill-rule="evenodd">
        <g id="Landingpage-Clubs" transform="translate(-1086.000000, -7004.000000)" fill="#FFFFFF">
            <g id="06-|-Content-Managemnt" transform="translate(-1.000000, 6001.000000)">
                <g id="Cover-2---02-Feature" transform="translate(0.000000, 615.000000)">
                    <g id="Content" transform="translate(19.000000, 53.000000)">
                        <g id="Feature-four" transform="translate(1066.000000, 331.000000)">
                            <g id="Glyphs-/-6">
                                <g id="Icons/bold/photo">
                                    <path d="M28.8000001,4.26666668 C29.3895468,4.26666668 29.8666668,4.74432002 29.8666668,5.33333335 L29.8666668,5.33333335 L29.8666668,22.4000001 C29.8666668,22.9895467 29.3895468,23.4666667 28.8000001,23.4666667 L28.8000001,23.4666667 L25.6000001,23.4666667 L25.6000001,26.6666668 C25.6000001,27.2562134 25.1228801,27.7333334 24.5333334,27.7333334 L24.5333334,27.7333334 L3.20000001,27.7333334 C2.61098668,27.7333334 2.13333334,27.2562134 2.13333334,26.6666668 L2.13333334,26.6666668 L2.13333334,9.60000003 C2.13333334,9.0109867 2.61098668,8.53333336 3.20000001,8.53333336 L3.20000001,8.53333336 L6.40000002,8.53333336 L6.40000002,5.33333335 C6.40000002,4.74432002 6.87765336,4.26666668 7.46666669,4.26666668 L7.46666669,4.26666668 Z M16.0000001,23.4666667 L11.7333334,23.4666667 C11.14528,23.4666667 10.6666667,23.9447467 10.6666667,24.5333334 L10.6666667,24.5333334 L10.6666667,25.6000001 L17.0666667,25.6000001 L17.0666667,24.5333334 C17.0666667,23.9447467 16.5880534,23.4666667 16.0000001,23.4666667 L16.0000001,23.4666667 Z M4.26666668,10.6666667 L4.26666668,25.6000001 L8.53333336,25.6000001 L8.53333336,24.5333334 C8.53333336,22.7687467 9.9687467,21.3333334 11.7333334,21.3333334 L11.7333334,21.3333334 L16.0000001,21.3333334 C17.7645867,21.3333334 19.2000001,22.7687467 19.2000001,24.5333334 L19.2000001,24.5333334 L19.2000001,25.6000001 L23.4666667,25.6000001 L23.4666667,10.6744534 L4.26666668,10.6666667 Z M27.7333334,6.40000002 L8.53333336,6.40000002 L8.53333336,8.53333336 L24.5333334,8.53333336 C25.1228801,8.53333336 25.6000001,9.0109867 25.6000001,9.60000003 L25.6000001,9.60000003 L25.6000001,21.3333334 L27.7333334,21.3333334 L27.7333334,6.40000002 Z M13.8666667,12.8 C15.6312534,12.8 17.0666667,14.2354134 17.0666667,16.0000001 C17.0666667,17.7645867 15.6312534,19.2000001 13.8666667,19.2000001 C12.10208,19.2000001 10.6666667,17.7645867 10.6666667,16.0000001 C10.6666667,14.2354134 12.10208,12.8 13.8666667,12.8 Z M13.8666667,14.9333334 C13.2786134,14.9333334 12.8,15.4119467 12.8,16.0000001 C12.8,16.5880534 13.2786134,17.0666667 13.8666667,17.0666667 C14.45472,17.0666667 14.9333334,16.5880534 14.9333334,16.0000001 C14.9333334,15.4119467 14.45472,14.9333334 13.8666667,14.9333334 Z" id="Combined-Shape"></path>
                                </g>
                            </g>
                        </g>
                    </g>
                </g>
            </g>
        </g>
    </g>
</svg>