<?xml version="1.0" encoding="UTF-8"?>
<svg width="33px" height="24px" viewBox="0 0 33 24" version="1.1" xmlns="http://www.w3.org/2000/svg" xmlns:xlink="http://www.w3.org/1999/xlink">
     
    <title>Glyphs / 2</title>
     
    <g id="01-|-Volleyball-" stroke="none" stroke-width="1" fill="none" fill-rule="evenodd">
        <g id="Landingpage-Clubs" transform="translate(-168.000000, -5776.000000)" fill="#FFFFFF">
            <g id="05-|-Asport" transform="translate(-4.000000, 3952.000000)">
                <g id="05-|-04---Features-" transform="translate(4.000000, 1757.000000)">
                    <g id="Feature-one" transform="translate(163.404861, 61.000000)">
                        <g id="Glyphs-/-2">
                            <g id="Icons/bold/securitycamera">
                                <path d="M36.0000001,26.6666668 L24.1576001,26.6666668 L22.5593334,23.4702667 L31.8125334,19.9114667 C32.4909334,19.6504001 32.8346668,18.8938667 32.5860001,18.2109334 L32.2168001,17.1956001 L33.8152001,16.5768001 C34.4857334,16.3170667 34.8294668,15.5702667 34.5912001,14.8912 L32.6250668,9.3006667 C31.8841334,7.26293336 29.6094668,6.18280002 27.5130668,6.90413336 L7.51240003,14.7590667 C7.47013336,14.7757334 7.44213336,14.8097334 7.40240002,14.8301334 C7.36226669,14.8505334 7.31786669,14.8533334 7.27933336,14.8782667 C7.24000002,14.9036 7.21840002,14.9434667 7.18266669,14.9721334 C7.11080002,15.0294667 7.04800002,15.0893334 6.99040002,15.1588001 C6.93586669,15.2244001 6.88960002,15.2901334 6.84920002,15.3637334 C6.80760002,15.4390667 6.77573336,15.5140001 6.74920002,15.5958667 C6.72280002,15.6774667 6.70480002,15.7568001 6.69440002,15.8420001 C6.68400002,15.9254667 6.68306669,16.0058667 6.68893336,16.0910667 C6.69493336,16.1812001 6.71093336,16.2664001 6.73560002,16.3549334 C6.74786669,16.3990667 6.74200002,16.4440001 6.75906669,16.4874667 C6.77586669,16.5301334 6.81000002,16.5584001 6.83053336,16.5982667 C6.85080002,16.6380001 6.85360002,16.6821334 6.87826669,16.7205334 L8.11813336,18.6494667 L6.17120002,19.4282667 C5.83786669,19.5617334 5.57226669,19.8241334 5.43493335,20.1561334 C5.29760002,20.4881334 5.29946668,20.8618667 5.44146668,21.1920001 L7.44146669,25.8580001 C7.65760003,26.3633334 8.14906669,26.6666668 8.66733336,26.6666668 C8.83200003,26.6666668 8.99933336,26.6366668 9.16213336,26.5716001 L12.3825334,25.2834668 L12.8782667,26.0546668 C13.1296,26.4453334 13.5573334,26.6666668 14.0006667,26.6666668 C14.1601334,26.6666668 14.3222667,26.6380001 14.4785334,26.5781334 L20.0585334,24.4320001 L22.1406667,28.5962668 C22.3672001,29.0481334 22.8281334,29.3333334 23.3333334,29.3333334 L36.0000001,29.3333334 C36.7369335,29.3333334 37.3333335,28.7369334 37.3333335,28.0000001 C37.3333335,27.2630668 36.7369335,26.6666668 36.0000001,26.6666668 Z M28.4322668,9.4062667 C29.1132001,9.1718667 29.8710668,9.53253337 30.1145334,10.1985334 L31.6470668,14.5566667 L13.238,21.6824001 L10.0006667,16.6465334 L28.4322668,9.4062667 Z" id="Combined-Shape"></path>
                            </g>
                        </g>
                    </g>
                </g>
            </g>
        </g>
    </g>
</svg>