<?xml version="1.0" encoding="UTF-8"?>
<svg width="18px" height="18px" viewBox="0 0 18 18" version="1.1" xmlns="http://www.w3.org/2000/svg" xmlns:xlink="http://www.w3.org/1999/xlink">
    <!-- Generator: Sketch 58 (84663) - https://sketch.com -->
    <title>_Icons / 24px  / Check 2</title>
    <desc>Created with Sketch.</desc>
    <g id="01-|-Volleyball-" stroke="none" stroke-width="1" fill="none" fill-rule="evenodd">
        <g id="Landingpage-Clubs" transform="translate(-226.000000, -3039.000000)" fill="#FFFFFF">
            <g id="Content" transform="translate(0.000000, 2825.000000)">
                <g id="List">
                    <g id="Group-9" transform="translate(225.000000, 211.000000)">
                        <g id="Group-2">
                            <g id="_Icons-/-24px--/-Check-2">
                                <path d="M10,19.5 C14.1421356,19.5 17.5,16.1421356 17.5,12 C17.5,7.85786438 14.1421356,4.5 10,4.5 C5.85786438,4.5 2.5,7.85786438 2.5,12 C2.5,16.1421356 5.85786438,19.5 10,19.5 Z M10,3 C14.9705627,3 19,7.02943725 19,12 C19,16.9705627 14.9705627,21 10,21 C5.02943725,21 1,16.9705627 1,12 C1,7.02943725 5.02943725,3 10,3 Z M14.2241711,8.67025698 L8.92521598,13.9809503 L6.03016817,11.0876695 L4.96983183,12.1486534 L8.92671386,16.1031204 L15.2860041,9.72974302 L14.2241711,8.67025698 Z" id="Combined-Shape"></path>
                            </g>
                        </g>
                    </g>
                </g>
            </g>
        </g>
    </g>
</svg>