<?xml version="1.0" encoding="UTF-8"?>
<svg width="33px" height="32px" viewBox="0 0 33 32" version="1.1" xmlns="http://www.w3.org/2000/svg" xmlns:xlink="http://www.w3.org/1999/xlink">
     
    <title>Icons/bold/coins</title>
     
    <g id="01-|-Volleyball-" stroke="none" stroke-width="1" fill="none" fill-rule="evenodd">
        <g id="Landingpage-Clubs" transform="translate(-165.000000, -3763.000000)" fill="#FFFFFF">
            <g id="04-|-Benefits-Club" transform="translate(-4.000000, 3314.000000)">
                <g id="Features-6" transform="translate(0.000000, 414.000000)">
                    <g id="Feature-one" transform="translate(165.060942, 33.500000)">
                        <g id="Icons/bold/coins">
                            <g id="Icon">
                                <path d="M26.6666667,21 C30.3424,21 33.3333333,23.6170667 33.3333333,26.8333333 C33.3333333,30.0496 30.3424,32.6666667 26.6666667,32.6666667 C22.9909333,32.6666667 20,30.0496 20,26.8333333 C20,23.6170667 22.9909333,21 26.6666667,21 Z M26.6666667,23.3333333 C24.4609333,23.3333333 22.6666667,24.9033167 22.6666667,26.8333333 C22.6666667,28.76335 24.4609333,30.3333333 26.6666667,30.3333333 C28.8724,30.3333333 30.6666667,28.76335 30.6666667,26.8333333 C30.6666667,24.9033167 28.8724,23.3333333 26.6666667,23.3333333 Z M26,2.33333333 C31.6081333,2.33333333 36,4.89568333 36,8.16666667 L36,8.16666667 L36,12.8333333 C36,16.1043167 31.6081333,18.6666667 26,18.6666667 C23.7269333,18.6666667 21.6609333,18.2403667 19.9988,17.5217 C19.9850667,21.3717 16.4030667,24.5 12,24.5 C7.58853333,24.5 4,21.3600333 4,17.5 C4,13.6399667 7.58853333,10.5 12,10.5 C13.4578667,10.5 14.8217333,10.8486 16,11.4471 L16,11.4471 L16,8.16666667 C16,4.89568333 20.3925333,2.33333333 26,2.33333333 Z M12,12.8333333 C9.0592,12.8333333 6.66666667,14.9268 6.66666667,17.5 C6.66666667,20.0737833 9.0592,22.1666667 12,22.1666667 C14.9408,22.1666667 17.3333333,20.0737833 17.3333333,17.5 C17.3333333,14.9268 14.9408,12.8333333 12,12.8333333 Z M33.3333333,12.1618 C31.5201333,13.2963833 28.93,14 26,14 C23.0702667,14 20.4798667,13.2963833 18.6666667,12.1616833 L18.6666667,12.1616833 L18.6666667,12.8333333 C18.6666667,14.4887167 21.6784,16.3333333 26,16.3333333 C30.3216,16.3333333 33.3333333,14.4887167 33.3333333,12.8333333 L33.3333333,12.8333333 Z M26,4.66666667 C21.6784,4.66666667 18.6666667,6.51128333 18.6666667,8.16666667 C18.6666667,9.82205 21.6784,11.6666667 26,11.6666667 C30.3216,11.6666667 33.3333333,9.82205 33.3333333,8.16666667 C33.3333333,6.51128333 30.3216,4.66666667 26,4.66666667 Z"></path>
                            </g>
                        </g>
                    </g>
                </g>
            </g>
        </g>
    </g>
</svg>