<?xml version="1.0" encoding="UTF-8"?>
<svg width="36px" height="29px" viewBox="0 0 36 29" version="1.1" xmlns="http://www.w3.org/2000/svg" xmlns:xlink="http://www.w3.org/1999/xlink">
     
    <title>Icons/bold/group</title>
     
    <g id="01-|-Volleyball-" stroke="none" stroke-width="1" fill="none" fill-rule="evenodd">
        <g id="Landingpage-Clubs" transform="translate(-544.000000, -3765.000000)" fill="#FFFFFF">
            <g id="04-|-Benefits-Club" transform="translate(-4.000000, 3314.000000)">
                <g id="Features-6" transform="translate(0.000000, 414.000000)">
                    <g id="Feature-two" transform="translate(546.002770, 34.417874)">
                        <g id="Icons/bold/group">
                            <path d="M23.9998667,15.1666667 C25.8800059,15.1666667 27.5179925,16.0314927 28.4664479,17.3214964 L28.5914668,17.5000001 L33.3372001,17.5000001 C35.4693292,17.5000001 37.2172334,18.9692352 37.3277828,20.8112167 L37.3333335,20.9966167 L37.3333335,27.9760834 C37.3333335,28.5805991 36.8091538,29.0770385 36.1364169,29.1367321 L36.0000001,29.1427501 L29.3333334,29.1427501 L29.3333334,30.3333334 C29.3333334,30.9378491 28.8091537,31.4342885 28.1364169,31.4939821 L28.0000001,31.5000001 L12,31.5000001 C11.30975,31.5000001 10.7418438,31.0413429 10.6735518,30.4526982 L10.6666667,30.3333334 L10.6666667,29.1781001 L4.00000001,29.1781001 C3.30975001,29.1781001 2.74184376,28.7194429 2.67355177,28.1307982 L2.66666668,28.0114334 L2.66666668,20.9966167 C2.66666668,19.1310038 4.34516824,17.6015876 6.45085386,17.5048569 L6.66280002,17.5000001 L11.4085334,17.5000001 C12.2935073,16.1722522 13.8883479,15.2496981 15.7450929,15.1719859 L15.9998667,15.1666667 L23.9998667,15.1666667 Z M24.0000001,17.5000001 L16.0000001,17.5000001 C14.58816,17.5000001 13.4294528,18.4644545 13.3390152,19.6801186 L13.3333334,19.8333334 L13.3333334,29.1666668 L26.6666668,29.1666668 L26.6666668,19.8333334 C26.6666668,18.5465001 25.4700001,17.5000001 24.0000001,17.5000001 Z M10.6666667,19.8333334 L6.66280002,19.8333334 C5.97555002,19.8333334 5.40841721,20.2919906 5.34021017,20.8778476 L5.33333335,20.9966167 L5.33333335,26.8447668 L10.6666667,26.8447668 L10.6666667,19.8333334 Z M33.3372001,19.8333334 L29.3333334,19.8333334 L29.3333334,26.8094168 L34.6666668,26.8094168 L34.6666668,20.9966167 C34.6666668,20.3551834 34.0702668,19.8333334 33.3372001,19.8333334 Z M32.0000001,8.16666669 C34.2057334,8.16666669 36.0000001,9.73665003 36.0000001,11.6666667 C36.0000001,13.5966834 34.2057334,15.1666667 32.0000001,15.1666667 C29.7942668,15.1666667 28.0000001,13.5966834 28.0000001,11.6666667 C28.0000001,9.73665003 29.7942668,8.16666669 32.0000001,8.16666669 Z M8.00000001,8.16666669 C10.2057334,8.16666669 12,9.73665003 12,11.6666667 C12,13.5966834 10.2057334,15.1666667 8.00000001,15.1666667 C5.79426669,15.1666667 4.00000001,13.5966834 4.00000001,11.6666667 C4.00000001,9.73665003 5.79426669,8.16666669 8.00000001,8.16666669 Z M20.0000001,3.50000001 C22.9414667,3.50000001 25.3333334,5.59346669 25.3333334,8.16666669 C25.3333334,10.7398667 22.9414667,12.8333334 20.0000001,12.8333334 C17.0592001,12.8333334 14.6666667,10.7398667 14.6666667,8.16666669 C14.6666667,5.59346669 17.0592001,3.50000001 20.0000001,3.50000001 Z M32.0000001,10.5 C31.2642668,10.5 30.6666668,11.0234834 30.6666668,11.6666667 C30.6666668,12.30985 31.2642668,12.8333334 32.0000001,12.8333334 C32.7357334,12.8333334 33.3333334,12.30985 33.3333334,11.6666667 C33.3333334,11.0234834 32.7357334,10.5 32.0000001,10.5 Z M8.00000003,10.5 C7.26493336,10.5 6.66666669,11.0234834 6.66666669,11.6666667 C6.66666669,12.30985 7.26493336,12.8333334 8.00000003,12.8333334 C8.7350667,12.8333334 9.33333336,12.30985 9.33333336,11.6666667 C9.33333336,11.0234834 8.7350667,10.5 8.00000003,10.5 Z M20.0000001,5.83333335 C18.5293334,5.83333335 17.3333334,6.87983336 17.3333334,8.16666669 C17.3333334,9.45350003 18.5293334,10.5 20.0000001,10.5 C21.4700001,10.5 22.6666667,9.45350003 22.6666667,8.16666669 C22.6666667,6.87983336 21.4700001,5.83333335 20.0000001,5.83333335 Z" id="Combined-Shape"></path>
                        </g>
                    </g>
                </g>
            </g>
        </g>
    </g>
</svg>