<?xml version="1.0" encoding="UTF-8"?>
<svg width="27px" height="26px" viewBox="0 0 27 26" version="1.1" xmlns="http://www.w3.org/2000/svg" xmlns:xlink="http://www.w3.org/1999/xlink">

    <title>Glyphs / 1</title>

    <g id="01-|-Volleyball-" stroke="none" stroke-width="1" fill="none" fill-rule="evenodd">
        <g id="Landingpage-Clubs" transform="translate(-457.000000, -5778.000000)" fill="#FFFFFF">
            <g id="05-|-Asport" transform="translate(-4.000000, 3952.000000)">
                <g id="05-|-04---Features-" transform="translate(4.000000, 1757.000000)">
                    <g id="Feature-two" transform="translate(450.802083, 63.000000)">
                        <g id="Glyphs-/-1" transform="translate(1.000000, 0.000000)">
                            <g id="Glyphs-/-5">
                                <g id="Icons/bold/standing-meeting" transform="translate(4.000000, 4.000000)">
                                    <path d="M17.9297001,8.00000003 C19.0713001,8.00000003 20,8.89260003 20,9.99020003 L20,9.99020003 L20,10 L25,10 C26.6543001,10 28,11.3457 28,13 L28,13 L28,19 C28,19.5527001 27.5527001,20 27,20 L27,20 L26,20 L26,27 C26,27.5527001 25.5527001,28 25,28 L25,28 L21,28 C20.4473001,28 20,27.5527001 20,27 L20,27 L20,19 C20,18.4473001 20.4473001,18 21,18 C21.5527001,18 22,18.4473001 22,19 L22,19 L22,26 L24,26 L24,19 C24,18.4473001 24.4473001,18 25,18 L25,18 L26,18 L26,13 C26,12.4487 25.5518001,12 25,12 L25,12 L20.5459001,12 L16.3408001,18.5410001 C16.0440001,19.0049001 15.4234001,19.1416001 14.9595,18.8408001 C14.4946,18.5430001 14.3604,17.9238001 14.6587,17.4590001 L14.6587,17.4590001 L15.5968001,16 L12,16 L12,19 C12,19.5527001 11.5522,20 11,20 L11,20 L10,20 L10,27 C10,27.5527001 9.55220003,28 9.00000001,28 L9.00000001,28 L5.00000001,28 C4.44780001,28 4.00000001,27.5527001 4.00000001,27 L4.00000001,27 L4.00000001,20 L3.00000001,20 C2.44780001,20 2.00000001,19.5527001 2.00000001,19 L2.00000001,19 L2.00000001,13 C2.00000001,11.3457 3.34570001,10 5.00000001,10 L5.00000001,10 L9.00000001,10 C9.35240003,10 9.68570003,10.0722 10,10.1843 L10,10.1843 L10,10 C10,8.89700003 10.9287,8.00000003 12.0698,8.00000003 L12.0698,8.00000003 Z M9.00000001,12 L5.00000001,12 C4.44870001,12 4.00000001,12.4487 4.00000001,13 L4.00000001,13 L4.00000001,18 L5.00000001,18 C5.55220002,18 6.00000001,18.4473001 6.00000001,19 L6.00000001,19 L6.00000001,26 L8.00000001,26 L8.00000001,19 C8.00000001,18.4473001 8.44780003,18 9.00000001,18 L9.00000001,18 L10,18 L10,13 C10,12.4487 9.55130003,12 9.00000001,12 L9.00000001,12 Z M18.0000001,9.99020003 L12.0698,10 L12.014,14 L16.8827001,14 L18.0004001,12.2617 L18.0004001,12.2617 L18.0000001,9.99020003 Z M6.50000001,2.00000001 C8.42970003,2.00000001 10,3.57030001 10,5.50000001 C10,7.42970002 8.42970003,9.00000001 6.50000001,9.00000001 C4.57030002,9.00000001 3.00000001,7.42970002 3.00000001,5.50000001 C3.00000001,3.57030001 4.57030002,2.00000001 6.50000001,2.00000001 Z M23.5000001,2.00000001 C25.4297001,2.00000001 27.0000001,3.57030001 27.0000001,5.50000001 C27.0000001,7.42970002 25.4297001,9.00000001 23.5000001,9.00000001 C21.5703001,9.00000001 20.0000001,7.42970002 20.0000001,5.50000001 C20.0000001,3.57030001 21.5703001,2.00000001 23.5000001,2.00000001 Z M6.50000002,4.00000001 C5.67290002,4.00000001 5.00000002,4.67290002 5.00000002,5.50000001 C5.00000002,6.32710002 5.67290002,7.00000001 6.50000002,7.00000001 C7.32710002,7.00000001 8.00000002,6.32710002 8.00000002,5.50000001 C8.00000002,4.67290002 7.32710002,4.00000001 6.50000002,4.00000001 Z M23.5000001,4.00000001 C22.6729001,4.00000001 22.0000001,4.67290002 22.0000001,5.50000001 C22.0000001,6.32710002 22.6729001,7.00000001 23.5000001,7.00000001 C24.3271001,7.00000001 25.0000001,6.32710002 25.0000001,5.50000001 C25.0000001,4.67290002 24.3271001,4.00000001 23.5000001,4.00000001 Z" id="Combined-Shape"></path>
                                </g>
                            </g>
                        </g>
                    </g>
                </g>
            </g>
        </g>
    </g>
</svg>
