<?xml version="1.0" encoding="UTF-8"?>
<svg width="38px" height="44px" viewBox="0 0 38 44" version="1.1" xmlns="http://www.w3.org/2000/svg" xmlns:xlink="http://www.w3.org/1999/xlink">
     
    <title>Icons/bold/piggy-bank</title>
     
    <g id="01-|-Volleyball-" stroke="none" stroke-width="1" fill="none" fill-rule="evenodd">
        <g id="Landingpage-Clubs" transform="translate(-831.000000, -1380.000000)" fill="#FFFFFF">
            <g id="02-|-Digitalisierung" transform="translate(0.000000, 867.000000)">
                <g id="Features-4" transform="translate(0.000000, 499.000000)">
                    <g id="Feature-three" transform="translate(825.000000, 5.000000)">
                        <g id="Icons/bold/piggy-bank" transform="translate(0.000000, 6.000000)">
                            <path d="M26.2321668,11.6666667 C27.0663334,11.6666667 27.8791668,11.7516667 28.6778334,11.8796667 C29.1420001,13.5725 30.0926668,15.0485001 31.3831668,16.1673334 C29.8178334,15.4266667 28.0760001,15 26.2321668,15 C20.2286667,15 15.2091667,19.3115001 14.2976667,25.2531668 C14.1731667,26.0660001 13.4733334,26.6666667 12.6505,26.6666667 L12.6505,26.6666667 L10,26.6666667 L10,30.8040001 L15.1531667,32.8091668 C15.4891667,32.9393334 15.7731667,33.1753334 15.9636667,33.4796668 C18.1958334,37.0636668 22.0345001,39.2023335 26.2321668,39.2023335 C32.9053334,39.2023335 38.3333335,33.7743334 38.3333335,27.1011668 C38.3333335,23.3008334 36.5688335,19.9081667 33.8200001,17.6880001 C34.8305001,18.0963334 35.9283335,18.3333334 37.0833335,18.3333334 C37.6676668,18.3333334 38.2373335,18.2705001 38.7900001,18.1606667 C40.5935001,20.6865001 41.6666667,23.7678334 41.6666667,27.1011668 C41.6666667,28.9346668 41.3286668,30.6865001 40.7393335,32.3193334 L40.7393335,32.3193334 L38.3040001,45.3076668 C38.1575001,46.0953335 37.4690001,46.6666667 36.6666667,46.6666667 L36.6666667,46.6666667 L30.0000001,46.6666667 C29.0788334,46.6666667 28.3333334,45.9211668 28.3333334,45.0000001 L28.3333334,45.0000001 L28.3333334,42.3755001 C27.6445001,42.4698335 26.9466668,42.5356668 26.2321668,42.5356668 C25.8165001,42.5356668 25.4093334,42.4926668 25.0000001,42.4601668 L25.0000001,42.4601668 L25.0000001,45.0000001 C25.0000001,45.9211668 24.2536667,46.6666667 23.3333334,46.6666667 L23.3333334,46.6666667 L16.6666667,46.6666667 C15.8520001,46.6666667 15.1563334,46.0775002 15.0228334,45.2733335 L15.0228334,45.2733335 L13.4298334,35.7155001 L7.72950003,33.4976668 C7.08900002,33.2486668 6.66666669,32.6318334 6.66666669,31.9450001 L6.66666669,31.9450001 L6.66666669,25.0000001 C6.66666669,24.0796667 7.41300002,23.3333334 8.33333336,23.3333334 L8.33333336,23.3333334 L11.2858334,23.3333334 C11.3948334,22.8935001 11.5235,22.4628334 11.6678334,22.0401667 C8.78400003,21.0125001 6.69600002,18.2936667 6.66666669,15.0681667 L6.66666669,15.0681667 L6.66666669,15 C6.66666669,13.9616667 7.70350003,13.16 8.67683336,13.3691667 L8.67683336,13.3691667 L19.2521667,13.3338334 C21.3528334,12.272 23.7210001,11.6666667 26.2321668,11.6666667 Z M17.4925001,39.8171668 L18.0786667,43.3333335 L21.6666667,43.3333335 L21.6666667,41.8213335 C20.1790001,41.3611668 18.7688334,40.6990001 17.4925001,39.8171668 L17.4925001,39.8171668 Z M36.1885001,38.8760001 C34.8560001,40.0043335 33.3281668,40.9011668 31.6666668,41.5291668 L31.6666668,41.5291668 L31.6666668,43.3333335 L35.2831668,43.3333335 Z M18.3333334,23.3333334 C19.253808,23.3333334 20.0000001,24.0795255 20.0000001,25.0000001 C20.0000001,25.9204747 19.253808,26.6666668 18.3333334,26.6666668 C17.4128588,26.6666668 16.6666667,25.9204747 16.6666667,25.0000001 C16.6666667,24.0795255 17.4128588,23.3333334 18.3333334,23.3333334 Z M27.8988334,17.5716667 C30.3271668,17.9005001 32.4838334,19.1561667 33.9681668,21.1068334 C34.5296668,21.8440001 34.3881668,22.8971667 33.6508334,23.4586667 C33.3465001,23.6898334 32.9900001,23.8013334 32.6351668,23.8013334 C32.1288334,23.8013334 31.6291668,23.5735001 31.2988334,23.1396667 C30.3565001,21.9026667 28.9893334,21.1060001 27.4480001,20.8976667 C25.9033334,20.6893334 24.3766667,21.0921667 23.1405001,22.0353334 C22.4025001,22.5985001 21.3493334,22.4528334 20.7878334,21.7171667 C20.2263334,20.9798334 20.3686667,19.9268334 21.1060001,19.3645001 C23.0558334,17.8800001 25.4663334,17.2436667 27.8988334,17.5716667 Z M14.8296667,16.6815001 L10.3613334,16.6968334 C10.8695,17.8318334 11.8738334,18.6918334 13.0941667,19.0181667 C13.6026667,18.1828334 14.1791667,17.3975001 14.8296667,16.6815001 L14.8296667,16.6815001 Z M37.0833335,3.33333334 C40.5290001,3.33333334 43.3333334,6.13683335 43.3333334,9.58333337 C43.3333334,13.0298334 40.5290001,15.8333333 37.0833335,15.8333333 C33.6376668,15.8333333 30.8333334,13.0298334 30.8333334,9.58333337 C30.8333334,6.13683335 33.6376668,3.33333334 37.0833335,3.33333334 Z M37.0833335,6.66666669 C35.4753335,6.66666669 34.1666668,7.97533336 34.1666668,9.58333337 C34.1666668,11.1913334 35.4753335,12.5 37.0833335,12.5 C38.6913335,12.5 40.0000001,11.1913334 40.0000001,9.58333337 C40.0000001,7.97533336 38.6913335,6.66666669 37.0833335,6.66666669 Z" id="Combined-Shape"></path>
                        </g>
                    </g>
                </g>
            </g>
        </g>
    </g>
</svg>