<?xml version="1.0" encoding="UTF-8"?>
<svg width="31px" height="27px" viewBox="0 0 31 27" version="1.1" xmlns="http://www.w3.org/2000/svg" xmlns:xlink="http://www.w3.org/1999/xlink">
     
    <title>Icons/bold/rocket</title>
     
    <g id="01-|-Volleyball-" stroke="none" stroke-width="1" fill="none" fill-rule="evenodd">
        <g id="Landingpage-Clubs" transform="translate(-926.000000, -3765.000000)" fill="#FFFFFF">
            <g id="04-|-Benefits-Club" transform="translate(-4.000000, 3314.000000)">
                <g id="Features-6" transform="translate(0.000000, 414.000000)">
                    <g id="Feature-four" transform="translate(927.940443, 35.555556)">
                        <g id="Icons/bold/rocket">
                            <path d="M5.83333334,23.0000001 C7.12203336,23.0000001 8.16666669,23.8954001 8.16666669,25.0000001 C8.16666669,25.882489 7.49701623,26.6256513 6.57138619,26.8904969 L6.40546669,26.9322001 L6.40546669,26.9353001 L2.33333334,28.0000001 L3.57186668,24.4999001 L3.58248335,24.5000001 C3.84276668,23.6389001 4.74740002,23.0000001 5.83333334,23.0000001 Z M31.3939501,2.00380001 C31.7357834,1.97990001 32.0798334,2.08290001 32.3248334,2.29290001 C32.5698334,2.50290001 32.6929168,2.79490001 32.6621168,3.09030001 C32.2394334,7.06930002 31.8041501,11.1831 29.0253834,13.565 C27.7315501,14.6733 25.4167668,16.3694001 22.7670334,18.1313001 L22.7670334,18.1313001 L22.7670334,24.1719001 C22.7670334,24.4375001 22.6439501,24.6914001 22.4252001,24.8789001 L22.4252001,24.8789001 L19.1257501,27.7070001 C18.9047834,27.8965001 18.6074001,28.0000001 18.3009167,28.0000001 C18.2274167,28.0000001 18.1539167,27.9941001 18.0804167,27.9826001 C17.6998501,27.9191001 17.3808834,27.6994001 17.2287501,27.3937001 L17.2287501,27.3937001 L14.9557334,22.8478001 C14.1604167,23.2704001 13.3903,23.6581001 12.6663834,23.9923001 C12.4920834,24.0723001 12.3023834,24.1114001 12.11385,24.1114001 C11.8113334,24.1114001 11.5129,24.0108001 11.2884334,23.8184001 L11.2884334,23.8184001 L7.16403336,20.2823001 C6.79945002,19.9698001 6.71743336,19.4903001 6.96185002,19.1016001 C7.35151669,18.4812001 7.80348336,17.8212001 8.29616669,17.1397001 L8.29616669,17.1397001 L2.99191668,15.1909001 C2.63643334,15.0605001 2.37895001,14.7871 2.30603334,14.4609 C2.23253334,14.1352 2.35270001,13.7993 2.62675001,13.5649 L2.62675001,13.5649 L5.92620002,10.7368 C6.14495002,10.5493 6.44175002,10.4438 6.75103336,10.4438 L6.75103336,10.4438 L13.7977,10.4438 C15.8533667,8.17230003 17.8323834,6.18810002 19.1257501,5.07950002 C21.8475834,2.74600001 26.5575334,2.37980001 31.1125501,2.02580001 L31.1125501,2.02580001 Z M20.4337001,19.6422001 C19.2780001,20.3710001 18.0997834,21.0842001 16.9435001,21.7475001 L16.9435001,21.7475001 L18.6939667,25.2480001 L20.4337001,23.7578001 Z M30.2089668,4.10550001 C26.4321168,4.41120001 22.7099834,4.83600002 20.7754167,6.49370002 C18.1077167,8.78030003 12.4241834,14.9117 9.4357667,19.4014001 L9.4357667,19.4014001 L12.3160334,21.8711001 C17.5535501,19.3086001 24.7073167,14.437 27.3754834,12.1509 C29.3169334,10.4864 29.8443834,7.33450002 30.2089668,4.10550001 Z M12.0352167,12.4439 L7.23415002,12.4439 L5.49500002,13.9346 L9.57950003,15.4356001 C10.3532334,14.4444 11.18495,13.4346 12.0352167,12.4439 L12.0352167,12.4439 Z M23.3333334,8.00000003 C24.6219978,8.00000003 25.6666668,8.89543053 25.6666668,10 C25.6666668,11.1045695 24.6219978,12 23.3333334,12 C22.044669,12 21.0000001,11.1045695 21.0000001,10 C21.0000001,8.89543053 22.044669,8.00000003 23.3333334,8.00000003 Z" id="Combined-Shape"></path>
                        </g>
                    </g>
                </g>
            </g>
        </g>
    </g>
</svg>