<?xml version="1.0" encoding="UTF-8"?>
<svg width="29px" height="22px" viewBox="0 0 29 22" version="1.1" xmlns="http://www.w3.org/2000/svg" xmlns:xlink="http://www.w3.org/1999/xlink">
     
    <title>Glyphs / 6</title>
     
    <g id="01-|-Volleyball-" stroke="none" stroke-width="1" fill="none" fill-rule="evenodd">
        <g id="Landingpage-Clubs" transform="translate(-1023.000000, -5783.000000)" fill="#FFFFFF">
            <g id="05-|-Asport" transform="translate(-4.000000, 3952.000000)">
                <g id="05-|-04---Features-" transform="translate(4.000000, 1757.000000)">
                    <g id="Feature-four" transform="translate(1021.602083, 69.000000)">
                        <g id="Glyphs-/-6">
                            <g id="Icons/bold/tablet">
                                <path d="M26.6666668,5.33333335 L5.33333335,5.33333335 C3.57333335,5.33333335 2.13333334,6.77333336 2.13333334,8.53333336 L2.13333334,23.4666667 C2.13333334,25.2266668 3.57333335,26.6666668 5.33333335,26.6666668 L26.6666668,26.6666668 C28.4266668,26.6666668 29.8666668,25.2266668 29.8666668,23.4666667 L29.8666668,8.53333336 C29.8666668,6.77333336 28.4266668,5.33333335 26.6666668,5.33333335 Z M27.7333334,23.4666667 C27.7333334,24.0533334 27.2533334,24.5333334 26.6666668,24.5333334 L5.33333335,24.5333334 C4.74666668,24.5333334 4.26666668,24.0533334 4.26666668,23.4666667 L4.26666668,8.53333336 C4.26666668,7.94666669 4.74666668,7.46666669 5.33333335,7.46666669 L26.6666668,7.46666669 C27.2533334,7.46666669 27.7333334,7.94666669 27.7333334,8.53333336 L27.7333334,23.4666667 Z M6.40000002,9.60000003 L25.6000001,9.60000003 L25.6000001,22.4000001 L6.40000002,22.4000001 L6.40000002,9.60000003 Z" id="Combined-Shape"></path>
                            </g>
                        </g>
                    </g>
                </g>
            </g>
        </g>
    </g>
</svg>