<?xml version="1.0" encoding="UTF-8"?>
<svg width="21px" height="22px" viewBox="0 0 21 22" version="1.1" xmlns="http://www.w3.org/2000/svg" xmlns:xlink="http://www.w3.org/1999/xlink">
     
    <title>Glyphs / 5asd</title>
     
    <g id="01-|-Volleyball-" stroke="none" stroke-width="1" fill="none" fill-rule="evenodd">
        <g id="Landingpage-Clubs" transform="translate(-1088.000000, -7920.000000)" fill="#FFFFFF">
            <g id="07-|-Distribution" transform="translate(0.000000, 7190.000000)">
                <g id="Cover-2" transform="translate(0.000000, 623.000000)">
                    <g id="Content" transform="translate(162.500000, 102.000000)">
                        <g id="Feature-two" transform="translate(920.000000, 0.000000)">
                            <g id="Glyphs-/-5">
                                <g id="Icons/bold/standing-meeting" transform="translate(4.000000, 4.000000)">
                                    <path d="M14.34376,6.40000002 C15.2570401,6.40000002 16.0000001,7.11408002 16.0000001,7.99216003 L16.0000001,7.99216003 L16.0000001,8.00000003 L20.0000001,8.00000003 C21.3234401,8.00000003 22.4000001,9.07656003 22.4000001,10.4 L22.4000001,10.4 L22.4000001,15.2000001 C22.4000001,15.6421601 22.0421601,16.0000001 21.6,16.0000001 L21.6,16.0000001 L20.8000001,16.0000001 L20.8000001,21.6000001 C20.8000001,22.0421601 20.4421601,22.4 20.0000001,22.4 L20.0000001,22.4 L16.8000001,22.4 C16.3578401,22.4 16.0000001,22.0421601 16.0000001,21.6000001 L16.0000001,21.6000001 L16.0000001,15.2000001 C16.0000001,14.75784 16.3578401,14.4 16.8000001,14.4 C17.2421601,14.4 17.6,14.75784 17.6,15.2000001 L17.6,15.2000001 L17.6,20.8000001 L19.2000001,20.8000001 L19.2000001,15.2000001 C19.2000001,14.75784 19.5578401,14.4 20.0000001,14.4 L20.0000001,14.4 L20.8000001,14.4 L20.8000001,10.4 C20.8000001,9.95896003 20.4414401,9.60000003 20.0000001,9.60000003 L20.0000001,9.60000003 L16.4367201,9.60000003 L13.07264,14.8328 C12.8352,15.2039201 12.33872,15.3132801 11.9676,15.0726401 C11.59568,14.8344 11.48832,14.33904 11.72696,13.9672 L11.72696,13.9672 L12.47744,12.8 L9.60000001,12.8 L9.60000001,15.2000001 C9.60000001,15.6421601 9.24176003,16.0000001 8.80000003,16.0000001 L8.80000003,16.0000001 L8.00000003,16.0000001 L8.00000003,21.6000001 C8.00000003,22.0421601 7.64176003,22.4 7.20000002,22.4 L7.20000002,22.4 L4.00000001,22.4 C3.55824001,22.4 3.20000001,22.0421601 3.20000001,21.6000001 L3.20000001,21.6000001 L3.20000001,16.0000001 L2.40000001,16.0000001 C1.95824001,16.0000001 1.60000001,15.6421601 1.60000001,15.2000001 L1.60000001,15.2000001 L1.60000001,10.4 C1.60000001,9.07656003 2.67656001,8.00000003 4.00000001,8.00000003 L4.00000001,8.00000003 L7.20000002,8.00000003 C7.48192002,8.00000003 7.74856003,8.05776003 8.00000003,8.14744003 L8.00000003,8.14744003 L8.00000003,8.00000003 C8.00000003,7.11760002 8.74296003,6.40000002 9.65584003,6.40000002 L9.65584003,6.40000002 Z M7.20000001,9.60000003 L4.00000001,9.60000003 C3.55896001,9.60000003 3.20000001,9.95896003 3.20000001,10.4 L3.20000001,10.4 L3.20000001,14.4 L4.00000001,14.4 C4.44176001,14.4 4.80000002,14.75784 4.80000002,15.2000001 L4.80000002,15.2000001 L4.80000002,20.8000001 L6.40000002,20.8000001 L6.40000002,15.2000001 C6.40000002,14.75784 6.75824002,14.4 7.20000001,14.4 L7.20000001,14.4 L8.00000003,14.4 L8.00000003,10.4 C8.00000003,9.95896003 7.64104003,9.60000003 7.20000001,9.60000003 L7.20000001,9.60000003 Z M14.4,7.99216003 L9.65584003,8.00000003 L9.61120003,11.2 L13.50616,11.2 L14.40032,9.80936003 L14.40032,9.80936003 L14.4,7.99216003 Z M5.20000002,1.60000001 C6.74376002,1.60000001 8.00000003,2.85624001 8.00000003,4.40000001 C8.00000003,5.94376002 6.74376002,7.20000002 5.20000002,7.20000002 C3.65624001,7.20000002 2.40000001,5.94376002 2.40000001,4.40000001 C2.40000001,2.85624001 3.65624001,1.60000001 5.20000002,1.60000001 Z M18.8000001,1.60000001 C20.3437601,1.60000001 21.6000001,2.85624001 21.6000001,4.40000001 C21.6000001,5.94376002 20.3437601,7.20000002 18.8000001,7.20000002 C17.2562401,7.20000002 16.0000001,5.94376002 16.0000001,4.40000001 C16.0000001,2.85624001 17.2562401,1.60000001 18.8000001,1.60000001 Z M5.20000002,3.20000001 C4.53832002,3.20000001 4.00000001,3.73832001 4.00000001,4.40000001 C4.00000001,5.06168002 4.53832002,5.60000002 5.20000002,5.60000002 C5.86168002,5.60000002 6.40000002,5.06168002 6.40000002,4.40000001 C6.40000002,3.73832001 5.86168002,3.20000001 5.20000002,3.20000001 Z M18.8000001,3.20000001 C18.1383201,3.20000001 17.6000001,3.73832001 17.6000001,4.40000001 C17.6000001,5.06168002 18.1383201,5.60000002 18.8000001,5.60000002 C19.4616801,5.60000002 20.0000001,5.06168002 20.0000001,4.40000001 C20.0000001,3.73832001 19.4616801,3.20000001 18.8000001,3.20000001 Z" id="Combined-Shape"></path>
                                </g>
                            </g>
                        </g>
                    </g>
                </g>
            </g>
        </g>
    </g>
</svg>