<?xml version="1.0" encoding="UTF-8"?>
<svg width="27px" height="26px" viewBox="0 0 27 26" version="1.1" xmlns="http://www.w3.org/2000/svg" xmlns:xlink="http://www.w3.org/1999/xlink">
     
    <title>Glyphs / 3aqwe</title>
     
    <g id="01-|-Volleyball-" stroke="none" stroke-width="1" fill="none" fill-rule="evenodd">
        <g id="Landingpage-Clubs" transform="translate(-834.000000, -8236.000000)" fill="#FFFFFF">
            <g id="07-|-Distribution" transform="translate(0.000000, 7190.000000)">
                <g id="Cover-2" transform="translate(0.000000, 623.000000)">
                    <g id="Content" transform="translate(162.500000, 102.000000)">
                        <g id="Feature-three" transform="translate(669.000000, 318.000000)">
                            <g id="Glyphs-/8">
                                <g id="Icons/bold/thumb_up">
                                    <path d="M25.6010668,12.8 L20.5011201,12.8 L21.0709334,9.95104003 C21.2604801,9.00672003 21.2365867,8.01408003 21.0032001,7.08181336 L20.9594667,6.90677336 C20.4135467,4.72448002 18.4614401,3.20000001 16.2119467,3.20000001 L14.9333334,3.20000001 C14.34432,3.20000001 13.8666667,3.67765335 13.8666667,4.26666668 L13.8666667,11.4379734 L11.85152,14.79648 C11.2728534,14.2225067 10.4775467,13.8666667 9.60000003,13.8666667 L4.26666668,13.8666667 C3.67765335,13.8666667 3.20000001,14.34432 3.20000001,14.9333334 L3.20000001,27.7333334 C3.20000001,28.3228801 3.67765335,28.8000001 4.26666668,28.8000001 L9.60000003,28.8000001 C11.1496534,28.8000001 12.4439467,27.6924801 12.73664,26.2276268 L15.5229867,27.6208001 C15.6708267,27.6948268 15.8343467,27.7333334 16.0000001,27.7333334 L22.9729067,27.7333334 C25.0020268,27.7333334 26.7635201,26.2896001 27.1604268,24.2999467 L28.7792001,16.2077867 C28.7927468,16.1385601 28.8000001,16.0688001 28.8000001,15.9984001 C28.8000001,14.23488 27.3645868,12.8 25.6010668,12.8 Z M10.6666667,25.6000001 C10.6666667,26.1885868 10.1880534,26.6666668 9.60000003,26.6666668 L5.33333335,26.6666668 L5.33333335,16.0000001 L9.60000003,16.0000001 C10.1880534,16.0000001 10.6666667,16.4786134 10.6666667,17.0666667 L10.6666667,25.6000001 Z M25.0688001,23.8822401 C24.8697601,24.8771201 23.9885867,25.6000001 22.9729067,25.6000001 L16.2515201,25.6000001 L12.8,23.8740267 L12.8,17.3621334 L15.8478934,12.28224 C15.9474134,12.11616 16.0000001,11.9266134 16.0000001,11.7333334 L16.0000001,5.33333335 L16.2119467,5.33333335 C17.4811734,5.33333335 18.5822934,6.19328002 18.8896001,7.42186669 L18.9333334,7.59690669 C19.0906667,8.22709336 19.1062401,8.89589336 18.9792001,9.53237337 L18.1542401,13.6573867 C18.0917334,13.97088 18.1730134,14.2958934 18.3750401,14.5428267 C18.5781334,14.79008 18.8802134,14.9333334 19.2000001,14.9333334 L25.6010668,14.9333334 C26.1593601,14.9333334 26.6187734,15.3640534 26.6635734,15.9109334 L25.0688001,23.8822401 Z" id="Combined-Shape"></path>
                                </g>
                            </g>
                        </g>
                    </g>
                </g>
            </g>
        </g>
    </g>
</svg>