<?xml version="1.0" encoding="UTF-8"?>
<svg width="44px" height="41px" viewBox="0 0 44 41" version="1.1" xmlns="http://www.w3.org/2000/svg" xmlns:xlink="http://www.w3.org/1999/xlink">
     
    <title>Icons/bold/tv_hd</title>
     
    <g id="01-|-Volleyball-" stroke="none" stroke-width="1" fill="none" fill-rule="evenodd">
        <g id="Landingpage-Clubs" transform="translate(-186.000000, -1377.000000)" fill="#FFFFFF">
            <g id="02-|-Digitalisierung" transform="translate(0.000000, 867.000000)">
                <g id="Features-4" transform="translate(0.000000, 499.000000)">
                    <g id="Feature-one" transform="translate(183.000000, 4.000000)">
                        <g id="Icons/bold/tv_hd" transform="translate(0.000000, 4.000000)">
                            <path d="M17.1548334,3.82150001 C17.8060001,3.17050001 18.8606667,3.17050001 19.5116667,3.82150001 L19.5116667,3.82150001 L25.0000001,9.30983336 L30.4883334,3.82150001 C31.1395001,3.17050001 32.1941668,3.17033334 32.8451668,3.82150001 C33.4961668,4.47266668 33.4961668,5.52733335 32.8451668,6.17833335 L32.8451668,6.17833335 L29.0235001,10 L41.6666668,10 C44.4238335,10 46.6666668,12.2428334 46.6666668,15 L46.6666668,15 L46.6666668,41.6666668 C46.6666668,42.5878335 45.9211668,43.3333335 45.0000001,43.3333335 L45.0000001,43.3333335 L5.00000002,43.3333335 C4.07966668,43.3333335 3.33333334,42.5878335 3.33333334,41.6666668 L3.33333334,41.6666668 L3.33333334,15 C3.33333334,12.2428334 5.57616669,10 8.33333334,10 L8.33333334,10 L20.9765001,10 L17.1548334,6.17833335 C16.5038334,5.52716669 16.5036667,4.47250001 17.1548334,3.82150001 Z M41.6666667,13.3333334 L8.33333336,13.3333334 C7.41450002,13.3333334 6.66666669,14.0811667 6.66666669,15 L6.66666669,15 L6.66666669,40.0000001 L43.3333335,40.0000001 L43.3333335,15 C43.3333335,14.0811667 42.5863335,13.3333334 41.6666667,13.3333334 L41.6666667,13.3333334 Z M15,20.0000001 L15,25.0000001 L20.0000001,25.0000001 L20.0000001,20.0000001 L23.3333334,20.0000001 L23.3333334,33.3333334 L20.0000001,33.3333334 L20.0000001,27.8495001 L15,27.8495001 L15,33.3333334 L11.6666667,33.3333334 L11.6666667,20.0000001 L15,20.0000001 Z M26.6666668,19.9999009 L30.8333334,19.9999009 C35.0320001,19.9836667 38.3333335,21.9836667 38.3333335,26.6666668 C38.3333335,31.0787484 35.1346662,33.2440862 31.087373,33.3306297 L30.8333334,33.3333334 L26.6666668,33.3333334 L26.6666668,19.9999009 L30.8333334,19.9999009 Z M30.8333334,22.5000001 L30.0000001,22.5000001 L30.0000001,30.8333334 L30.8333334,30.8333334 C32.9666668,30.8500001 35.0000001,29.5496668 35.0000001,26.6666668 C35.0000001,24.1336667 33.6333334,22.5000001 30.8333334,22.5000001 Z" id="Combined-Shape"></path>
                        </g>
                    </g>
                </g>
            </g>
        </g>
    </g>
</svg>