<?xml version="1.0" encoding="UTF-8"?>
<svg width="29px" height="26px" viewBox="0 0 29 26" version="1.1" xmlns="http://www.w3.org/2000/svg" xmlns:xlink="http://www.w3.org/1999/xlink">
     
    <title>Glyphs / 2asd</title>
     
    <g id="01-|-Volleyball-" stroke="none" stroke-width="1" fill="none" fill-rule="evenodd">
        <g id="Landingpage-Clubs" transform="translate(-1084.000000, -8235.000000)" fill="#FFFFFF">
            <g id="07-|-Distribution" transform="translate(0.000000, 7190.000000)">
                <g id="Cover-2" transform="translate(0.000000, 623.000000)">
                    <g id="Content" transform="translate(162.500000, 102.000000)">
                        <g id="Feature-four" transform="translate(920.000000, 318.000000)">
                            <g id="Glyphs-/-7">
                                <g id="Icons/bold/tv-guide">
                                    <path d="M12.3869681,2.35700829 L12.4874667,2.44576001 L16.0000001,5.95829335 L19.5125334,2.44576001 C19.9292801,2.02912001 20.6042667,2.02901334 21.0209067,2.44576001 C21.4054975,2.83044924 21.4350814,3.43517729 21.1096585,3.85363475 L21.0209067,3.95413335 L18.5750401,6.40000002 L26.6666668,6.40000002 C28.3704056,6.40000002 29.7672813,7.73812613 29.8615917,9.41867616 L29.8666668,9.60000003 L29.8666668,26.6666668 C29.8666668,27.2169103 29.4510422,27.6692178 28.9163024,27.7270799 L28.8000001,27.7333334 L3.20000001,27.7333334 C2.65025423,27.7333334 2.19751539,27.3177089 2.13959352,26.782969 L2.13333334,26.6666668 L2.13333334,9.60000003 C2.13333334,7.89626118 3.47145945,6.49938545 5.15200948,6.40507504 L5.33333335,6.40000002 L13.42496,6.40000002 L10.9790934,3.95413335 C10.5624534,3.53738668 10.5623467,2.86240001 10.9790934,2.44576001 C11.3637826,2.06116924 11.9685107,2.03158533 12.3869681,2.35700829 Z M26.6666668,8.53333336 L5.33333335,8.53333336 C4.78448357,8.53333336 4.33096819,8.95025876 4.27293881,9.48395795 L4.26666668,9.60000003 L4.26666668,25.6000001 L27.7333334,25.6000001 L27.7333334,9.60000003 C27.7333334,9.0119467 27.2552534,8.53333336 26.6666668,8.53333336 Z M20.2666667,20.2666667 C20.8562134,20.2666667 21.3333334,20.7437867 21.3333334,21.3333334 C21.3333334,21.9228801 20.8562134,22.4000001 20.2666667,22.4000001 L20.2666667,22.4000001 L7.46666669,22.4000001 C6.87765336,22.4000001 6.40000002,21.9228801 6.40000002,21.3333334 C6.40000002,20.7437867 6.87765336,20.2666667 7.46666669,20.2666667 L7.46666669,20.2666667 Z M7.46666669,16.0000001 L24.5333334,16.0000001 C25.1228801,16.0000001 25.6000001,16.4776534 25.6000001,17.0666667 C25.6000001,17.6169103 25.1843756,18.0692177 24.6496357,18.1270799 L24.5333334,18.1333334 L7.46666669,18.1333334 C6.87765336,18.1333334 6.40000002,17.6562134 6.40000002,17.0666667 C6.40000002,16.5169209 6.81608915,16.0641821 7.35045736,16.0062602 L7.46666669,16.0000001 L24.5333334,16.0000001 Z M24.5333334,11.7333334 C25.1228801,11.7333334 25.6000001,12.2109867 25.6000001,12.8 C25.6000001,13.3497458 25.1843756,13.8024847 24.6496357,13.8604065 L24.5333334,13.8666667 L7.46666669,13.8666667 C6.87765336,13.8666667 6.40000002,13.3890134 6.40000002,12.8 C6.40000002,12.2502543 6.81608915,11.7975154 7.35045736,11.7395936 L7.46666669,11.7333334 L24.5333334,11.7333334 Z" id="Combined-Shape"></path>
                                </g>
                            </g>
                        </g>
                    </g>
                </g>
            </g>
        </g>
    </g>
</svg>