<?xml version="1.0" encoding="UTF-8"?>
<svg width="28px" height="24px" viewBox="0 0 28 24" version="1.1" xmlns="http://www.w3.org/2000/svg" xmlns:xlink="http://www.w3.org/1999/xlink">
     
    <title>Glyphs / 5</title>
     
    <g id="01-|-Volleyball-" stroke="none" stroke-width="1" fill="none" fill-rule="evenodd">
        <g id="Landingpage-Clubs" transform="translate(-1089.000000, -6673.000000)" fill="#FFFFFF">
            <g id="06-|-Content-Managemnt" transform="translate(-1.000000, 6001.000000)">
                <g id="Cover-2---02-Feature" transform="translate(0.000000, 615.000000)">
                    <g id="Content" transform="translate(19.000000, 53.000000)">
                        <g id="Feature-two" transform="translate(1069.000000, 0.000000)">
                            <g id="Glyphs-/-Sponsor">
                                <g id="Icons/bold/movie_3">
                                    <path d="M26.6666668,4.26666668 C28.4312534,4.26666668 29.8666668,5.70208002 29.8666668,7.46666669 L29.8666668,7.46666669 L29.8666668,26.6666668 C29.8666668,27.2562134 29.3895468,27.7333334 28.8000001,27.7333334 L28.8000001,27.7333334 L3.20000001,27.7333334 C2.61098668,27.7333334 2.13333334,27.2562134 2.13333334,26.6666668 L2.13333334,26.6666668 L2.13333334,7.46666669 C2.13333334,5.70208002 3.56874668,4.26666668 5.33333335,4.26666668 L5.33333335,4.26666668 Z M27.7333334,10.6666667 L4.26666668,10.6666667 L4.26666668,25.6000001 L27.7333334,25.6000001 L27.7333334,10.6666667 Z M13.344,14.0053334 C13.6853334,13.8133334 14.0906667,13.8238934 14.4213334,14.016 L14.4213334,14.016 L19.7546667,17.2160001 C20.0746667,17.4080001 20.2666667,17.7600001 20.2666667,18.1333334 C20.2666667,18.5066667 20.0746667,18.8586667 19.7440001,19.0506667 L19.7440001,19.0506667 L14.4106667,22.2506667 C14.08,22.4533334 13.6746667,22.4533334 13.3333334,22.2613334 C12.992,22.0693334 12.8,21.7173334 12.8,21.3333334 L12.8,21.3333334 L12.8,14.9333334 C12.8,14.5493334 13.0026667,14.1973334 13.344,14.0053334 Z M26.6666668,6.40000002 L26.0417068,6.40000002 L23.9083734,8.53333336 L27.7333334,8.53333336 L27.7333334,7.46666669 C27.7333334,6.87861336 27.2552534,6.40000002 26.6666668,6.40000002 L26.6666668,6.40000002 Z M23.0250667,6.40000002 L18.5750401,6.40000002 L16.4417067,8.53333336 L20.8917334,8.53333336 L23.0250667,6.40000002 Z M15.5584001,6.40000002 L11.1083734,6.40000002 L8.97504003,8.53333336 L13.4250667,8.53333336 L15.5584001,6.40000002 Z M8.09162669,6.40000002 L5.33333335,6.40000002 C4.74528002,6.40000002 4.26666668,6.87861336 4.26666668,7.46666669 L4.26666668,7.46666669 L4.26666668,8.53333336 L5.95829335,8.53333336 L8.09162669,6.40000002 Z" id="Combined-Shape"></path>
                                </g>
                            </g>
                        </g>
                    </g>
                </g>
            </g>
        </g>
    </g>
</svg>