<?xml version="1.0" encoding="UTF-8"?>
<svg width="16px" height="16px" viewBox="0 0 16 16" version="1.1" xmlns="http://www.w3.org/2000/svg" xmlns:xlink="http://www.w3.org/1999/xlink">
    <!-- Generator: Sketch 58 (84663) - https://sketch.com -->
    <title>_Icons / 16px - Social  / Instagram</title>
    <desc>Created with Sketch.</desc>
    <g id="01-|-Volleyball-" stroke="none" stroke-width="1" fill="none" fill-rule="evenodd">
        <g id="Landingpage-Clubs" transform="translate(-1175.000000, -11061.000000)" fill="#FFFFFF">
            <g id="Footer-3" transform="translate(-222.000000, 11017.000000)">
                <g id="Social" transform="translate(1397.000000, 44.000000)">
                    <g id="_Icons-/-16px---Social--/-Instagram">
                        <path d="M7.06054078,0.000862411988 L8.9394776,0.000862411988 C10.279616,0.0038954088 10.5873189,0.0156980741 11.2983898,0.0481421718 C12.1498965,0.086979821 12.731445,0.222228838 13.240304,0.420005518 C13.7663747,0.624419212 14.2125155,0.897965827 14.6572907,1.34270931 C15.1020342,1.78748454 15.3755808,2.23362529 15.5800262,2.75969602 C15.7777712,3.26855496 15.9130202,3.8501035 15.9518578,4.70161023 C15.9907907,5.55489529 16,5.82733045 16,8.00001588 C16,10.1726696 15.9907907,10.4451047 15.9518578,11.2983898 C15.9130202,12.1498965 15.7777712,12.731445 15.5800262,13.240304 C15.3755808,13.7663747 15.1020342,14.2125155 14.6572907,14.6572907 C14.2125155,15.1020342 13.7663747,15.3755808 13.240304,15.5800262 C12.731445,15.7777712 12.1498965,15.9130202 11.2983898,15.9518578 C10.4451047,15.9907907 10.1726696,16 8.00001588,16 C5.82733045,16 5.55489529,15.9907907 4.70161023,15.9518578 C3.8501035,15.9130202 3.26855496,15.7777712 2.75969602,15.5800262 C2.23362529,15.3755808 1.78748454,15.1020342 1.34270931,14.6572907 C0.897965827,14.2125155 0.624419212,13.7663747 0.420005518,13.240304 C0.222228838,12.731445 0.086979821,12.1498965 0.0481421718,11.2983898 C0.0156980741,10.5873189 0.0038954088,10.279616 0.000862411988,8.9394776 L0.000862411988,7.06054078 C0.0038954088,5.72038401 0.0156980741,5.41268112 0.0481421718,4.70161023 C0.086979821,3.8501035 0.222228838,3.26855496 0.420005518,2.75969602 C0.624419212,2.23362529 0.897965827,1.78748454 1.34270931,1.34270931 C1.78748454,0.897965827 2.23362529,0.624419212 2.75969602,0.420005518 C3.26855496,0.222228838 3.8501035,0.086979821 4.70161023,0.0481421718 C5.41268112,0.0156980741 5.72038401,0.0038954088 7.06054078,0.000862411988 L8.9394776,0.000862411988 Z M8.71760616,1.44186472 L7.28241511,1.44186472 C5.79142825,1.44395305 5.50543525,1.45441121 4.7673135,1.4880885 C3.9873214,1.52365528 3.56372745,1.65398211 3.28182899,1.76354048 C2.9084096,1.90866563 2.64191283,2.08202191 2.36198324,2.36198324 C2.08202191,2.64191283 1.90866563,2.9084096 1.76354048,3.28182899 C1.65398211,3.56372745 1.52365528,3.9873214 1.4880885,4.7673135 C1.45441121,5.50543525 1.44395305,5.79142825 1.44186472,7.28241511 L1.44186472,8.71760616 C1.44395305,10.2085718 1.45441121,10.4945648 1.4880885,11.2326865 C1.52365528,12.0126786 1.65398211,12.4362726 1.76354048,12.718171 C1.90866563,13.0915904 2.08205366,13.3580872 2.36198324,13.6380168 C2.64191283,13.9179781 2.9084096,14.0913344 3.28182899,14.2364595 C3.56372745,14.3460179 3.9873214,14.4763447 4.7673135,14.5119115 C5.50535189,14.5455888 5.79128584,14.5560469 7.28236562,14.5581353 L8.71765696,14.5581353 C10.2087211,14.5560469 10.4946759,14.5455888 11.2326865,14.5119115 C12.0126786,14.4763447 12.4362726,14.3460179 12.718171,14.2364595 C13.0915904,14.0913344 13.3580872,13.9179781 13.6380168,13.6380168 C13.9179781,13.3580872 14.0913344,13.0915904 14.2364595,12.718171 C14.3460179,12.4362726 14.4763447,12.0126786 14.5119115,11.2326865 C14.5455888,10.4945648 14.5560469,10.2085718 14.5581353,8.71760616 L14.5581353,7.28241511 C14.5560469,5.79142825 14.5455888,5.50543525 14.5119115,4.7673135 C14.4763447,3.9873214 14.3460179,3.56372745 14.2364595,3.28182899 C14.0913344,2.9084096 13.9179781,2.64191283 13.6380168,2.36198324 C13.3580872,2.08202191 13.0915904,1.90866563 12.718171,1.76354048 C12.4362726,1.65398211 12.0126786,1.52365528 11.2326865,1.4880885 C10.4945648,1.45441121 10.2085718,1.44395305 8.71760616,1.44186472 Z M8.00001588,3.89189447 C10.2688586,3.89189447 12.1081055,5.73114137 12.1081055,8.00001588 C12.1081055,10.2688586 10.2688586,12.1081055 8.00001588,12.1081055 C5.73114137,12.1081055 3.89189447,10.2688586 3.89189447,8.00001588 C3.89189447,5.73114137 5.73114137,3.89189447 8.00001588,3.89189447 Z M8.00001588,5.33333333 C9.47276621,5.33333333 10.6666667,6.52723379 10.6666667,8.00001588 C10.6666667,9.47276621 9.47276621,10.6666667 8.00001588,10.6666667 C6.52723379,10.6666667 5.33333333,9.47276621 5.33333333,8.00001588 C5.33333333,6.52723379 6.52723379,5.33333333 8.00001588,5.33333333 Z M12.2704107,2.76957215 C12.8006097,2.76957215 13.2304279,3.19939028 13.2304279,3.7295893 C13.2304279,4.25978831 12.8006097,4.68957469 12.2704107,4.68957469 C11.7402434,4.68957469 11.3104253,4.25978831 11.3104253,3.7295893 C11.3104253,3.19939028 11.7402434,2.76957215 12.2704107,2.76957215 Z" id="Icon"></path>
                    </g>
                </g>
            </g>
        </g>
    </g>
</svg>