<?xml version="1.0" encoding="UTF-8"?>
<svg width="174px" height="51px" viewBox="0 0 174 51" version="1.1" xmlns="http://www.w3.org/2000/svg" xmlns:xlink="http://www.w3.org/1999/xlink">
     
    <title>Brandmark</title>
     
    <defs>
        <radialGradient cx="11.2371377%" cy="22.445886%" fx="11.2371377%" fy="22.445886%" r="138.013645%" gradientTransform="translate(0.112371,0.224459),scale(1.000000,0.632596),translate(-0.112371,-0.224459)" id="radialGradient-1">
            <stop stop-color="#42B4F3" stop-opacity="0.9804" offset="0%"></stop>
            <stop stop-color="#003A80" offset="100%"></stop>
        </radialGradient>
        <radialGradient cx="86.9254535%" cy="42.5123278%" fx="86.9254535%" fy="42.5123278%" r="83.7503688%" gradientTransform="translate(0.869255,0.425123),scale(1.000000,0.560239),translate(-0.869255,-0.425123)" id="radialGradient-2">
            <stop stop-color="#5BC0FF" stop-opacity="0.9804" offset="0%"></stop>
            <stop stop-color="#003789" offset="100%"></stop>
        </radialGradient>
        <radialGradient cx="71.1760154%" cy="27.916907%" fx="71.1760154%" fy="27.916907%" r="134.814611%" gradientTransform="translate(0.711760,0.279169),scale(1.000000,0.453265),translate(-0.711760,-0.279169)" id="radialGradient-3">
            <stop stop-color="#5FC7FF" offset="0%"></stop>
            <stop stop-color="#003785" stop-opacity="0.9804" offset="100%"></stop>
        </radialGradient>
        <radialGradient cx="46.7925858%" cy="19.8566318%" fx="46.7925858%" fy="19.8566318%" r="113.676922%" gradientTransform="translate(0.467926,0.198566),scale(1.000000,0.847845),translate(-0.467926,-0.198566)" id="radialGradient-4">
            <stop stop-color="#EC0A1C" offset="0%"></stop>
            <stop stop-color="#BB0E15" offset="100%"></stop>
        </radialGradient>
        <radialGradient cx="29.8243147%" cy="20.3845518%" fx="29.8243147%" fy="20.3845518%" r="162.326387%" gradientTransform="translate(0.298243,0.203846),scale(1.000000,0.414532),translate(-0.298243,-0.203846)" id="radialGradient-5">
            <stop stop-color="#EC0A1C" offset="0%"></stop>
            <stop stop-color="#9E0D18" offset="100%"></stop>
        </radialGradient>
        <linearGradient x1="58.056489%" y1="100.995852%" x2="46.2983901%" y2="-0.025896861%" id="linearGradient-6">
            <stop stop-color="#320000" offset="0%"></stop>
            <stop stop-color="#5D0000" offset="100%"></stop>
        </linearGradient>
        <radialGradient cx="94.0234998%" cy="91.8759156%" fx="94.0234998%" fy="91.8759156%" r="201.584011%" gradientTransform="translate(0.940235,0.918759),scale(1.000000,0.478180),translate(-0.940235,-0.918759)" id="radialGradient-7">
            <stop stop-color="#003789" offset="0%"></stop>
            <stop stop-color="#5FC7FF" stop-opacity="0.9804" offset="100%"></stop>
        </radialGradient>
    </defs>
    <g id="01-|-Volleyball-" stroke="none" stroke-width="1" fill="none" fill-rule="evenodd">
        <g id="Landingpage-Clubs" transform="translate(-857.000000, -759.000000)" fill="#000000">
            <g id="Logos" transform="translate(421.000000, 759.000000)">
                <g id="Swisscom-/-Brandmark" transform="translate(436.000000, 0.000000)">
                    <rect id="Rectangle" fill="none" x="0" y="0" width="174" height="51"></rect>
                    <g id="Swisscom-/-Lifeform" fill="none" stroke-width="1">
                        <g id="Swisscom_Lifeform">
                            <path d="M10.5643979,41.851751 C11.0219895,42.2684825 11.4994764,42.6653696 11.9968586,43.0225681 C12.3350785,43.2607004 12.6931937,43.4988327 13.0513089,43.7171206 C13.5287958,44.014786 14.026178,44.292607 14.5235602,44.5505837 C15.2,44.9077821 16.2743455,45.3840467 16.9507853,45.6618677 C16.8115183,45.4435798 16.7120419,45.3046693 16.5727749,45.066537 C16.234555,44.6894942 15.9162304,44.3124514 15.617801,43.7964981 C15.3790576,43.3797665 15.1403141,42.8836576 14.921466,42.2089494 C14.782199,41.7922179 14.6230366,41.3159533 14.4837696,40.8 C14.3842932,40.4428016 14.2848168,40.0657588 14.2052356,39.6490272 C14.1853403,39.5696498 14.1256545,39.2719844 14.1057592,39.192607 C14.026178,38.7758755 13.9465969,38.3988327 13.8471204,38.0217899 C13.7675393,37.6447471 13.6680628,37.2875486 13.5486911,36.9303502 C13.3497382,36.3548638 13.1507853,35.8190661 12.9120419,35.3031128 C12.6335079,34.6680934 12.3350785,34.0727626 11.9968586,33.536965 C11.7780105,33.1797665 11.2209424,32.4256809 10.9623037,32.1081712 C10.7633508,31.8700389 10.6041885,31.6715953 10.4251309,31.4731518 C10.2858639,31.3342412 10.1465969,31.1754864 9.98743455,30.9770428 C9.78848168,30.7587549 9.56963351,30.5404669 9.37068063,30.3420233 C9.35078534,30.322179 9.37068063,30.3420233 9.33089005,30.3618677 C8.91308901,30.8976654 8.53507853,31.433463 8.21675393,32.0089494 C7.95811518,32.4653696 7.73926702,32.9416342 7.58010471,33.4377432 C7.48062827,33.7155642 7.42094241,33.9933852 7.36125654,34.2910506 C7.30157068,34.588716 7.28167539,34.8863813 7.2617801,35.1840467 C7.24188482,35.5610895 7.2617801,35.9381323 7.32146597,36.3350195 C7.38115183,36.7319066 7.48062827,37.1486381 7.63979058,37.585214 C7.81884817,38.081323 8.05759162,38.5774319 8.35602094,39.0933852 C8.39581152,39.1529183 8.43560209,39.2322957 8.47539267,39.2918288 C9.01256545,40.244358 9.7486911,41.077821 10.5643979,41.851751 L10.5643979,41.851751 Z" id="Shape" fill="url(#radialGradient-1)"></path>
                            <path d="M16.9507853,50.8610895 C17.8659686,50.7817121 18.8408377,50.6626459 19.8356021,50.4840467 C21.0691099,50.2657588 22.3225131,49.948249 23.5958115,49.5513619 C24.6701571,49.2140078 25.7246073,48.8171206 26.7790576,48.3607004 C27.7141361,47.9439689 28.6293194,47.4875486 29.504712,46.9914397 C30.6387435,46.3365759 31.7329843,45.5824903 32.7078534,44.7490272 C33.8418848,43.7766537 34.8366492,42.7050584 35.652356,41.5143969 C36.5078534,40.2642023 37.1445026,38.8750973 37.5424084,37.3669261 C37.7612565,36.533463 37.8806283,35.6801556 37.9204188,34.7673152 C37.9602094,33.7552529 37.860733,32.7828794 37.6219895,31.8303502 C37.3036649,30.5603113 36.7465969,29.3299611 35.9905759,28.1392996 C35.0554974,26.6311284 33.8020942,25.1824903 32.3696335,23.7735409 C30.9172775,22.3249027 29.2659686,20.9159533 27.5151832,19.4871595 C26.4408377,18.6140078 25.3465969,17.740856 24.2324607,16.8478599 C23.3769634,16.1731518 22.521466,15.4785992 21.6460733,14.7642023 C20.6910995,13.970428 19.7361257,13.1766537 18.8010471,12.363035 C17.9853403,11.6287938 17.1895288,10.9143969 16.4136126,10.1801556 C16.1549738,9.94202335 15.9162304,9.68404669 15.6575916,9.4459144 C14.8617801,8.65214008 14.0858639,7.79883268 13.2701571,6.8463035 C13.7277487,7.52101167 14.4439791,8.53307393 15.1403141,9.56498054 C15.617801,10.2992218 16.095288,11.033463 16.4335079,11.6883268 C16.5926702,11.9859922 16.7120419,12.2836576 16.8115183,12.5416342 C16.8910995,12.7797665 16.9507853,12.9782101 16.9507853,13.1568093 L16.9507853,14.0894942 L16.9507853,21.6501946 L16.9507853,27.9210117 L16.9507853,36.0373541 L16.9507853,45.9595331 C16.9507853,48.618677 16.9507853,50.8610895 16.9507853,50.8610895 L16.9507853,50.8610895 Z" id="Shape" fill="url(#radialGradient-2)"></path>
                            <path d="M16.9507853,45.6618677 C16.9507853,45.6618677 18.6617801,43.6575875 19.139267,43.0821012 C19.4575916,42.7050584 20.173822,41.7922179 20.8502618,40.9190661 C21.5068063,40.0657588 22.1235602,39.2521401 22.3225131,38.9941634 C22.4020942,38.8750973 23.4764398,37.3470817 23.5759162,37.2081712 C24.0931937,36.47393 23.7151832,36.9898833 24.0136126,36.6128405 C24.1329843,36.4342412 24.1926702,36.3945525 24.9486911,35.2435798 C25.0282723,35.1245136 25.1675393,34.8863813 25.286911,34.7077821 C25.3465969,34.588716 25.9832461,33.5766537 26.0429319,33.4972763 C26.1623037,33.2988327 26.2816754,33.1003891 26.3811518,32.9217899 C26.6795812,32.3859922 26.8984293,31.9692607 27.1371728,31.5326848 C27.6743455,30.5404669 27.9528796,30.0642023 28.4303665,29.0124514 C28.7685864,28.2782101 29.1465969,27.4249027 29.3853403,26.7898833 C29.5643979,26.3533074 29.8230366,25.6587549 29.9424084,25.2817121 C30.0418848,25.0237354 30.260733,24.3291829 30.4,23.892607 C30.6387435,23.0789883 30.7780105,22.5431907 30.817801,22.3249027 C30.8376963,22.2455253 30.6984293,21.729572 30.6984293,21.729572 C30.1413613,21.2533074 29.365445,20.5785992 28.8481675,20.1618677 C28.6492147,19.9832685 27.0973822,18.7132296 26.8387435,18.4949416 C25.8439791,17.681323 24.391623,16.5105058 23.3371728,15.6571984 C22.2429319,14.7840467 21.5664921,14.2284047 20.5518325,13.3949416 C16.8513089,10.3587549 15.0408377,8.31478599 13.0910995,6.54863813 C14.0659686,8.75136187 16.5528796,11.9066148 16.5528796,14.0894942 L16.5528796,16.9867704 L16.5528796,20.5984436 L16.5528796,24.6863813 L16.5528796,29.1910506 L16.5528796,32.6241245 L16.5528796,33.9536965 L16.5528796,45.0466926 C16.5528796,45.066537 16.6921466,45.2649805 16.9507853,45.6618677 L16.9507853,45.6618677 Z" id="Shape" fill="url(#radialGradient-3)"></path>
                            <path d="M19.3780105,12.859144 C19.5570681,13.0178988 19.6963351,13.136965 20.1141361,13.4743191 C20.2931937,13.6132296 20.7308901,13.9902724 20.8900524,14.1291829 C21.208377,14.3871595 22.3623037,15.3198444 22.4816754,15.4389105 C22.521466,15.4785992 22.6010471,15.5381323 22.7005236,15.6175097 C23.3570681,16.1533074 25.0680628,17.5225681 25.5853403,17.9392996 C25.5853403,17.9392996 25.6052356,17.959144 25.6450262,17.9988327 C26.0429319,18.3163424 28.0324607,19.9237354 29.0272251,20.7571984 C29.9424084,21.5311284 30.7382199,22.2653696 30.817801,22.3249027 C31.0167539,21.4120623 31.1560209,20.5190661 31.2554974,19.6856031 C31.3748691,18.514786 31.3947644,17.4035019 31.295288,16.3914397 C31.1560209,14.6451362 30.7183246,13.1171206 30.1015707,11.7875486 C29.4848168,10.4579767 28.6691099,9.34669261 27.7340314,8.41400778 C27.634555,8.31478599 27.5350785,8.2155642 27.4356021,8.13618677 C26.878534,7.62023346 26.3015707,7.16381323 25.6649215,6.76692607 C25.0481675,6.37003891 24.391623,6.03268482 23.7151832,5.73501946 C22.5015707,5.23891051 21.2879581,4.94124514 20.1937173,4.8618677 C18.860733,4.76264591 17.6272251,4.98093385 16.8314136,5.41750973 C16.6722513,5.49688716 16.5329843,5.55642023 16.5329843,5.55642023 L16.5329843,7.48132296 L16.5329843,10.3389105 C16.5727749,10.3785992 16.9109948,10.6762646 16.9109948,10.6961089 C17.5078534,11.251751 18.2240838,11.9066148 18.582199,12.2241245 C18.8806283,12.4225681 19.1193717,12.640856 19.3780105,12.859144 L19.3780105,12.859144 Z" id="Shape" fill="url(#radialGradient-4)"></path>
                            <path d="M14.2649215,41.4548638 C14.3246073,41.6731518 14.4041885,41.911284 14.4837696,42.129572 C14.6031414,42.4669261 14.7225131,42.7844358 14.8418848,43.1217899 C15.060733,43.6178988 15.2994764,44.1140078 15.617801,44.5505837 C15.8565445,44.8879377 16.1350785,45.1856031 16.4732984,45.4237354 C16.6125654,45.5229572 16.7717277,45.6023346 16.9507853,45.6817121 L16.9507853,36.5731518 C16.9507853,36.5731518 16.8513089,36.5533074 16.7717277,36.533463 C16.6921466,36.5136187 16.5727749,36.47393 16.5727749,36.47393 L16.5727749,25.2023346 L16.5727749,15.3992218 L16.5727749,14.1291829 C16.5727749,13.5933852 16.9507853,13.1568093 16.9507853,13.1568093 C16.9507853,13.1766537 16.9507853,13.1568093 16.9507853,13.1568093 C16.9507853,12.9980545 16.8712042,12.7202335 16.8314136,12.6011673 C16.6921466,12.2241245 16.513089,11.8470817 16.3340314,11.4898833 C16.2146597,11.2914397 16.3340314,11.4898833 16.2146597,11.2914397 C15.8963351,10.7754864 15.339267,9.84280156 15.0010471,9.34669261 C14.5036649,8.592607 14.6031414,8.75136187 14.1057592,8.01712062 C13.9267016,7.75914397 13.5685864,7.2233463 13.3895288,6.94552529 C13.1308901,6.54863813 12.7727749,5.23891051 12.5937173,4.80233463 C12.0565445,5.19922179 11.2209424,5.83424125 10.6837696,6.2311284 C9.4104712,7.16381323 8.11727749,8.09649805 6.88376963,9.0688716 C6.06806283,9.70389105 5.27225131,10.3785992 4.49633508,11.0929961 C3.78010471,11.7478599 3.02408377,12.4821012 2.36753927,13.2758755 C1.13403141,14.744358 0.159162304,16.4509728 0.019895288,18.3560311 C1.36644168e-14,18.6735409 1.36644168e-14,18.9910506 0.019895288,19.288716 C0.0397905759,19.62607 0.0795811518,19.9435798 0.159162304,20.2610895 C0.397905759,21.4715953 0.935078534,22.5233463 1.63141361,23.4361868 C2.40732984,24.4680934 3.38219895,25.3809339 4.37696335,26.2540856 C4.55602094,26.3929961 4.71518325,26.551751 4.89424084,26.6906615 C6.06806283,27.7027237 7.2617801,28.6949416 8.37591623,29.766537 C9.98743455,31.3143969 11.4596859,33.040856 12.4942408,35.1642023 C13.3497382,37.1684825 13.6282723,39.3513619 14.2649215,41.4548638 L14.2649215,41.4548638 Z" id="Shape" fill="url(#radialGradient-5)"></path>
                            <path d="M16.9507853,13.136965 L16.9507853,13.136965 C15.6973822,13.2957198 14.8617801,14.0101167 14.3643979,15.1412451 C13.9068063,16.1533074 13.6680628,17.2844358 12.991623,18.1972763 C11.5989529,20.1023346 7.97801047,19.6657588 7.42094241,22.285214 C6.6052356,26.1350195 11.6387435,26.9486381 13.1109948,29.6276265 C14.2052356,31.5922179 13.6680628,34.6680934 15.7371728,36.0571984 C16.0554974,36.2754864 16.4136126,36.4143969 16.7717277,36.5136187 C16.9109948,36.5533074 16.9308901,36.5533074 16.9706806,36.5533074 C16.9507853,36.533463 16.9507853,13.136965 16.9507853,13.136965 L16.9507853,13.136965 Z" id="Shape" fill="#FFFFFF"></path>
                            <path d="M16.9507853,36.5533074 C16.8910995,36.533463 16.8314136,36.533463 16.7518325,36.5136187 C16.3937173,36.4143969 16.0356021,36.2754864 15.7172775,36.0571984 C13.6481675,34.6680934 14.1853403,31.5922179 13.0910995,29.6276265 C12.7528796,29.0124514 12.1958115,28.4766537 11.5989529,28.0003891 C11.5790576,27.9805447 11.5591623,27.9607004 11.539267,27.9607004 C11.3005236,28.1988327 10.9424084,28.5758755 10.365445,29.1513619 C9.70890052,29.8062257 9.11204188,30.5801556 9.11204188,30.5801556 L9.11204188,30.5801556 C10.4052356,31.9097276 11.539267,33.3980545 12.3947644,35.1642023 C13.4094241,37.3867704 13.6680628,39.8276265 14.4439791,42.1494163 C14.7225131,43.0027237 15.0806283,43.8560311 15.5979058,44.570428 C15.9361257,45.0268482 16.3340314,45.4237354 16.9308901,45.6618677 L16.9308901,36.6525292 L16.9308901,36.5533074 L16.9507853,36.5533074 L16.9507853,36.5533074 L16.9507853,36.5533074 Z" id="Shape" fill="url(#linearGradient-6)"></path>
                            <path d="M14.5235602,8.23540856 C14.7424084,8.47354086 15.0209424,8.77120623 15.2795812,9.02918288 C15.5979058,9.34669261 15.8764398,9.64435798 16.234555,9.98171206 C16.4534031,10.2 16.7319372,10.4579767 16.9706806,10.6762646 L16.9706806,7.42178988 L16.9706806,3.7307393 L16.9706806,0.158754864 C16.8115183,0.119066148 16.5528796,0.0992217899 16.234555,0.119066148 C15.7172775,0.138910506 15.0408377,0.257976654 14.3842932,0.496108949 C13.8670157,0.694552529 13.3497382,0.952529183 12.9319372,1.30972763 C12.4544503,1.70661479 12.1162304,2.22256809 11.9769634,2.85758755 C11.8376963,3.53229572 11.9371728,4.3459144 12.3947644,5.31828794 C12.6136126,5.77470817 12.9518325,6.37003891 13.2701571,6.80661479 C13.2900524,6.82645914 13.5287958,7.10428016 13.6680628,7.26303502 C13.9068063,7.58054475 14.2052356,7.91789883 14.5235602,8.23540856 L14.5235602,8.23540856 Z" id="Shape" fill="url(#radialGradient-7)"></path>
                        </g>
                    </g>
                    <path d="M115.068613,20.91 C114.179562,20.59125 112.782482,20.20875 111.639416,20.20875 C110.305839,20.20875 109.289781,20.5275 109.289781,21.73875 C109.289781,24.54375 116.592701,22.8225 116.592701,28.6875 C116.592701,32.64 113.417518,34.17 109.79781,34.17 C108.146715,34.17 106.49562,33.915 104.971533,33.46875 L105.225547,30.02625 C105.225547,30.02625 107.575182,30.855 109.607299,30.855 C111.00438,30.855 112.147445,30.40875 112.147445,29.1975 C112.147445,26.1375 104.844526,28.11375 104.844526,22.3125 C104.844526,18.67875 107.892701,17.2125 111.258394,17.2125 C113.227007,17.2125 114.878102,17.595 115.830657,17.91375 L115.068613,20.91 L115.068613,20.91 Z M101.79635,20.91 C100.843796,20.59125 99.510219,20.20875 98.3671533,20.20875 C97.0335766,20.20875 96.0175182,20.5275 96.0175182,21.73875 C96.0175182,24.54375 103.320438,22.8225 103.320438,28.6875 C103.320438,32.64 100.081752,34.17 96.5255474,34.17 C94.8744526,34.17 93.2233577,33.915 91.6357664,33.46875 L91.9532847,30.02625 C91.9532847,30.02625 94.3664234,30.855 96.3350365,30.855 C97.6686131,30.855 98.8751825,30.40875 98.8751825,29.1975 C98.8751825,26.1375 91.5722628,28.11375 91.5722628,22.3125 C91.5722628,18.67875 94.6839416,17.2125 97.9861314,17.2125 C99.9547445,17.2125 101.605839,17.595 102.621898,17.91375 L101.79635,20.91 L101.79635,20.91 Z M168.983212,17.02125 C172.158394,17.02125 174,18.7425 174,22.50375 L174,33.7875 L169.808759,33.7875 L169.808759,23.3325 C169.808759,21.61125 169.30073,20.5275 167.522628,20.5275 C165.744526,20.5275 164.156934,22.12125 164.156934,24.92625 L164.156934,33.7875 L160.029197,33.7875 L160.029197,23.3325 C160.029197,21.73875 159.521168,20.5275 157.743066,20.5275 C155.837956,20.5275 154.377372,22.24875 154.377372,25.1175 L154.377372,33.7875 L150.122628,33.7875 L150.122628,17.40375 C152.916788,17.085 153.99635,18.2325 154.059854,20.0175 C155.075912,18.16875 156.854015,17.02125 159.140146,17.02125 C162.061314,17.02125 163.267883,18.67875 163.648905,20.20875 C164.410949,18.55125 166.189051,17.02125 168.983212,17.02125 L168.983212,17.02125 L168.983212,17.02125 Z M82.9992701,17.34 C82.110219,22.185 79.7605839,29.89875 78.2364964,33.72375 L73.7912409,33.72375 L70.679562,22.75875 L70.6160584,22.75875 L67.5043796,33.72375 L63.0591241,33.72375 C61.6620438,29.89875 59.0583942,21.99375 58.2963504,17.34 L62.4875912,17.34 L65.2817518,28.62375 L65.3452555,28.62375 L68.6474453,17.34 L72.8386861,17.34 L76.0773723,28.56 L76.1408759,28.56 L78.9350365,17.34 L82.9992701,17.34 L82.9992701,17.34 Z M55.7562044,20.91 C54.8671533,20.59125 53.470073,20.20875 52.3270073,20.20875 C50.9934307,20.20875 50.0408759,20.5275 50.0408759,21.73875 C50.0408759,24.54375 57.280292,22.8225 57.280292,28.6875 C57.280292,32.64 54.1051095,34.17 50.4854015,34.17 C48.8343066,34.17 47.1832117,33.915 45.6591241,33.46875 L45.9131387,30.02625 C45.9131387,30.02625 48.3262774,30.855 50.2948905,30.855 C51.6919708,30.855 52.8350365,30.40875 52.8350365,29.1975 C52.8350365,26.1375 45.5321168,28.11375 45.5321168,22.3125 C45.5321168,18.67875 48.580292,17.2125 51.9459854,17.2125 C53.9145985,17.2125 55.5656934,17.595 56.5182482,17.91375 L55.7562044,20.91 L55.7562044,20.91 Z M139.644526,34.10625 C135.008759,34.10625 131.770073,31.55625 131.770073,25.81875 C131.770073,20.71875 135.19927,17.02125 140.152555,17.02125 C144.788321,17.02125 147.772993,19.635 147.772993,25.18125 C147.772993,30.53625 144.534307,34.10625 139.644526,34.10625 L139.644526,34.10625 L139.644526,34.10625 Z M139.835036,20.655 C137.929927,20.655 136.151825,22.0575 136.151825,25.69125 C136.151825,28.815 137.294891,30.53625 139.771533,30.53625 C141.867153,30.53625 143.454745,28.815 143.454745,25.5 C143.454745,22.3125 142.311679,20.655 139.835036,20.655 L139.835036,20.655 L139.835036,20.655 Z M84.9043796,33.7875 L89.0956204,33.7875 L89.0956204,17.40375 C87.1270073,17.2125 84.9043796,17.7225 84.9043796,20.84625 L84.9043796,33.7875 L84.9043796,33.7875 Z M87.1905109,15.3 C88.6510949,15.3 89.8576642,14.1525 89.8576642,12.68625 C89.8576642,11.28375 88.6510949,10.13625 87.1905109,10.13625 C85.7934307,10.13625 84.5868613,11.22 84.5868613,12.68625 C84.5868613,14.1525 85.7934307,15.3 87.1905109,15.3 L87.1905109,15.3 L87.1905109,15.3 Z M126.308759,34.0425 C121.482482,34.0425 118.307299,31.62 118.307299,25.81875 C118.307299,20.91 121.037956,17.085 127.007299,17.085 C128.277372,17.085 129.928467,17.34 131.008029,17.78625 L130.118978,21.22875 C129.166423,20.91 128.213869,20.655 127.134307,20.655 C124.086131,20.655 122.816058,22.63125 122.816058,25.69125 C122.816058,28.62375 123.959124,30.53625 126.943796,30.53625 C128.340876,30.53625 129.293431,30.2175 130.245985,29.835 L130.754015,33.21375 C129.864964,33.66 128.150365,34.0425 126.308759,34.0425 L126.308759,34.0425 Z" id="Wordmark" fill="#FFFFFF"></path>
                </g>
            </g>
        </g>
    </g>
</svg>