<?xml version="1.0" standalone="no"?>
<!DOCTYPE svg PUBLIC "-//W3C//DTD SVG 20010904//EN"
 "http://www.w3.org/TR/2001/REC-SVG-20010904/DTD/svg10.dtd">
<svg version="1.0" xmlns="http://www.w3.org/2000/svg"
 width="800.000000pt" height="800.000000pt" viewBox="0 0 800.000000 800.000000"
 preserveAspectRatio="xMidYMid meet">
<metadata>
Created by potrace 1.11, written by Peter Selinger 2001-2013
</metadata>
<g transform="translate(0.000000,800.000000) scale(0.100000,-0.100000)"
fill="#000000" stroke="none">
<path d="M2774 7360 c-15 -6 -24 -21 -29 -47 -4 -21 -11 -44 -17 -50 -6 -7 -8
-13 -5 -13 3 0 -3 -27 -13 -59 -10 -33 -15 -62 -12 -65 3 -3 0 -6 -6 -6 -7 0
-12 -8 -12 -19 0 -10 -9 -47 -21 -82 -11 -35 -22 -72 -25 -81 -9 -40 -16 -63
-89 -313 -42 -143 -78 -264 -79 -270 -1 -5 -11 -37 -21 -70 -10 -33 -20 -67
-21 -75 -1 -8 -9 -35 -17 -60 -14 -41 -43 -142 -53 -180 -4 -19 -68 -233 -95
-323 -12 -37 -22 -73 -23 -80 -1 -7 -5 -18 -9 -24 -5 -7 -5 -13 -1 -13 3 0 1
-7 -6 -15 -7 -8 -10 -15 -7 -15 3 0 -2 -21 -10 -47 -20 -67 -54 -185 -58 -206
-2 -9 -7 -22 -10 -27 -4 -6 -8 -20 -11 -33 -2 -12 -22 -83 -44 -157 -23 -74
-42 -142 -45 -150 -3 -15 -39 -137 -111 -382 -20 -68 -37 -127 -38 -133 -2 -5
-11 -36 -20 -69 -10 -32 -19 -64 -20 -70 -9 -39 -20 -73 -29 -83 -5 -7 -7 -13
-4 -13 3 0 -1 -21 -9 -47 -24 -79 -225 -771 -229 -788 -1 -5 -5 -17 -8 -25 -5
-13 -79 -262 -92 -310 -2 -8 -18 -64 -36 -125 -17 -60 -32 -114 -34 -120 -3
-16 -36 -126 -51 -172 -7 -23 -15 -53 -18 -67 -3 -14 -7 -30 -11 -36 -3 -5 -8
-18 -10 -27 -5 -22 -57 -204 -85 -298 -19 -62 -24 -82 -34 -120 -1 -5 -9 -32
-18 -60 -25 -79 -58 -191 -63 -211 -2 -11 -14 -50 -25 -89 -12 -38 -25 -83
-30 -100 -4 -16 -29 -102 -55 -190 -26 -88 -57 -196 -70 -240 -13 -44 -37
-129 -55 -188 -17 -60 -33 -116 -35 -125 -2 -9 -13 -45 -24 -79 -21 -69 -18
-76 35 -74 47 2 55 2 84 -2 14 -2 35 0 47 5 13 4 25 3 28 -3 4 -6 13 -6 23 0
9 5 26 5 39 0 13 -5 23 -5 23 0 0 5 15 6 33 2 17 -4 44 -4 59 0 16 4 28 3 28
-2 0 -5 10 -5 23 0 12 5 24 9 27 11 3 1 17 -3 31 -9 15 -5 30 -7 33 -4 9 9 66
9 66 1 0 -4 11 -3 25 2 15 6 26 6 30 -1 4 -6 13 -6 23 0 9 5 26 5 39 0 14 -5
23 -5 23 1 0 5 12 5 30 0 17 -5 30 -5 30 0 0 5 13 5 30 0 19 -5 30 -5 30 1 0
6 5 7 10 4 6 -4 34 -6 63 -6 29 1 60 1 70 1 40 0 48 0 60 0 6 0 23 -1 37 -3
14 -2 35 0 47 5 13 4 25 3 28 -3 4 -6 13 -6 23 0 9 5 26 5 39 0 13 -5 23 -5
23 0 0 5 15 6 33 2 17 -4 44 -4 60 0 16 4 27 3 27 -2 0 -6 5 -7 11 -4 13 9
107 10 115 2 3 -3 17 -2 30 3 14 6 26 6 29 0 4 -6 13 -7 23 -1 10 5 24 6 33 1
8 -5 21 -5 29 0 8 5 21 5 31 -1 11 -6 20 -5 24 1 3 6 15 6 29 0 32 -12 52 5
65 55 6 22 11 45 12 50 1 6 5 20 10 33 5 12 11 33 13 45 2 12 20 83 41 157 44
164 56 208 101 375 43 160 41 153 53 193 5 18 10 35 10 37 1 3 1 6 2 8 0 1 2
13 5 27 2 14 9 36 14 50 5 14 11 34 13 45 1 11 6 26 10 33 5 6 6 12 4 12 -3 0
1 17 8 37 l13 38 993 0 c647 0 997 -3 1006 -10 7 -5 15 -19 17 -30 2 -12 27
-108 56 -215 29 -107 54 -201 56 -210 2 -8 17 -64 34 -125 16 -60 32 -123 35
-139 3 -16 8 -32 10 -35 3 -5 57 -205 71 -261 2 -8 11 -42 20 -75 9 -33 17
-66 18 -73 3 -18 27 -32 40 -24 16 9 46 10 52 1 2 -5 16 -4 29 1 15 6 27 6 30
-1 4 -5 11 -6 17 -3 13 8 107 9 114 1 3 -3 17 -2 30 3 14 6 26 6 29 0 4 -6 13
-7 24 -1 10 6 23 6 31 1 8 -5 21 -5 30 0 9 5 23 4 32 -1 10 -6 19 -6 23 0 3 6
15 7 28 2 12 -5 32 -5 44 0 13 5 25 4 28 -1 4 -6 13 -7 24 -1 10 6 23 6 31 1
8 -5 21 -5 30 0 9 5 23 4 32 -1 10 -6 19 -6 23 0 3 6 15 7 29 1 12 -4 29 -4
36 0 8 5 18 6 23 3 15 -9 50 -10 74 -1 13 4 25 3 28 -3 4 -6 13 -6 23 0 9 5
26 5 39 0 13 -5 23 -5 23 0 0 5 15 6 33 2 17 -4 44 -4 60 0 15 4 27 3 27 -2 0
-5 12 -4 28 2 15 6 27 10 27 10 0 0 12 -4 26 -10 15 -5 30 -7 33 -4 9 9 66 9
66 1 0 -4 11 -3 25 2 15 6 26 6 30 -1 4 -6 13 -6 23 0 9 5 26 5 39 0 14 -5 23
-5 23 1 0 5 12 5 30 0 17 -5 30 -5 30 0 0 5 13 5 30 0 19 -5 30 -5 30 1 0 6 5
7 10 4 6 -4 34 -6 63 -6 29 1 60 1 70 1 34 0 47 0 65 0 9 0 43 0 74 -1 32 0
62 2 68 6 5 3 10 2 10 -4 0 -7 8 -7 24 -1 13 5 27 6 32 2 4 -4 4 -2 1 4 -3 6
-8 21 -11 35 -3 13 -14 56 -26 94 -12 39 -25 84 -30 100 -5 17 -18 62 -30 100
-12 39 -27 93 -35 120 -8 28 -21 69 -29 93 -8 23 -15 45 -15 47 0 3 -5 22 -11
43 -6 20 -15 51 -20 67 -4 17 -20 68 -35 115 -14 47 -28 92 -30 100 -2 8 -13
47 -25 85 -12 39 -23 77 -25 85 -2 8 -4 16 -5 18 -2 1 -3 5 -4 10 -2 4 -8 27
-16 52 -7 25 -14 50 -16 56 -1 9 -36 123 -76 252 -5 18 -11 39 -12 45 -2 7 -6
19 -9 27 -3 8 -18 56 -32 105 -14 50 -40 135 -56 190 -17 55 -34 114 -39 130
-4 17 -40 138 -80 270 -40 132 -73 245 -74 250 -2 6 -13 44 -26 85 -13 41 -24
77 -25 80 -1 3 -9 32 -19 65 -10 33 -19 65 -20 70 -2 10 -38 127 -78 255 -11
36 -22 72 -23 80 -2 8 -13 47 -25 85 -12 39 -28 93 -36 120 -17 58 -42 144
-49 165 -3 8 -11 38 -19 65 -8 28 -26 88 -41 135 -14 47 -28 92 -30 100 -4 14
-18 62 -95 320 -16 52 -42 140 -58 195 -17 55 -51 170 -77 255 -26 85 -48 162
-50 170 -2 8 -11 37 -20 64 -9 26 -18 56 -20 65 -2 9 -14 48 -25 86 -12 39
-25 84 -30 100 -4 17 -13 44 -20 60 -6 17 -11 31 -10 33 2 3 -25 97 -41 142
-4 14 -17 59 -29 100 -12 41 -24 82 -27 90 -3 8 -8 24 -10 34 -2 11 -10 40
-19 65 -9 25 -18 53 -20 61 -6 25 -32 111 -54 185 -12 39 -23 77 -25 85 -2 8
-25 85 -51 170 -25 85 -47 160 -49 165 -1 6 -5 17 -8 25 -3 8 -13 42 -22 75
-10 33 -20 67 -23 75 -3 8 -6 20 -7 26 -2 6 -15 51 -30 99 -15 49 -28 96 -30
105 -10 48 -26 72 -45 67 -11 -3 -20 -1 -20 4 0 6 -6 7 -17 0 -10 -5 -26 -5
-40 0 -13 5 -25 4 -28 -1 -3 -6 -15 -6 -30 0 -15 6 -27 6 -30 0 -3 -6 -15 -6
-30 0 -15 6 -27 6 -30 0 -4 -6 -13 -7 -24 -1 -9 5 -23 6 -31 1 -7 -4 -24 -4
-36 0 -14 6 -26 5 -29 0 -3 -6 -15 -6 -30 0 -15 6 -27 6 -30 0 -3 -6 -15 -6
-30 0 -15 6 -27 6 -30 -1 -4 -6 -13 -6 -23 0 -9 5 -26 5 -37 1 -12 -5 -28 -5
-35 0 -7 5 -23 4 -36 0 -12 -5 -25 -6 -28 -3 -3 3 -28 6 -56 6 -28 0 -53 -3
-56 -6 -3 -3 -16 -2 -28 3 -13 4 -29 4 -36 0 -8 -5 -18 -6 -23 -3 -12 7 -226
7 -233 0 -4 -3 -16 -2 -28 3 -13 4 -29 4 -36 0 -8 -5 -18 -6 -24 -3 -11 7
-196 6 -203 -1 -3 -3 -16 -1 -29 4 -14 6 -26 6 -29 0 -4 -6 -13 -7 -24 -1 -9
5 -23 6 -31 1 -7 -4 -19 -6 -26 -3 -20 8 -224 9 -224 1 0 -4 -6 -5 -13 -2 -20
7 -117 10 -117 2 0 -4 -12 -3 -28 1 -15 5 -37 4 -50 0 -12 -5 -22 -4 -22 1 0
5 -13 5 -30 0 -17 -5 -32 -5 -35 0 -3 5 -16 5 -30 0 -15 -6 -27 -6 -30 0 -3 6
-15 6 -30 0 -15 -6 -27 -6 -30 0 -3 6 -15 6 -30 0 -15 -6 -25 -6 -25 0 0 5
-12 5 -30 0 -17 -5 -32 -5 -35 0 -3 5 -16 5 -30 0 -15 -6 -27 -6 -30 0 -3 6
-15 6 -29 0 -13 -5 -27 -5 -32 0 -5 4 -19 4 -30 0z m1159 -1628 c7 -51 17
-105 31 -168 2 -12 7 -39 10 -59 5 -32 21 -108 41 -200 3 -11 8 -36 11 -55 3
-19 10 -48 14 -65 5 -16 11 -47 15 -69 3 -21 8 -43 11 -48 3 -5 7 -19 9 -31 7
-43 48 -210 92 -367 8 -30 19 -71 23 -90 5 -19 25 -96 45 -170 20 -74 38 -142
40 -150 17 -67 45 -171 54 -197 5 -18 8 -33 5 -33 -3 0 0 -8 5 -19 6 -10 13
-33 16 -51 3 -18 10 -41 15 -50 5 -10 7 -20 4 -23 -3 -3 -2 -12 2 -19 5 -7 10
-24 12 -37 2 -14 8 -33 14 -44 5 -11 11 -29 13 -41 3 -20 10 -51 35 -141 6
-22 13 -51 16 -65 2 -14 9 -36 14 -50 12 -33 40 -149 43 -178 l2 -23 -613 0
c-338 -1 -615 1 -617 3 -2 2 10 50 26 108 16 58 31 114 34 125 2 11 9 36 14
55 5 19 24 89 41 155 17 66 40 152 51 190 11 39 22 81 25 95 3 14 9 39 15 55
10 34 99 368 104 395 2 9 13 48 24 86 11 38 22 78 24 89 2 11 9 40 16 65 7 25
14 52 16 60 2 8 13 51 24 96 12 45 23 90 25 100 2 11 9 39 16 64 7 25 14 56
17 70 2 14 9 43 15 65 12 46 16 67 24 114 3 19 10 45 15 58 5 13 7 23 4 23 -2
0 0 14 5 32 5 17 12 50 16 72 3 23 12 70 19 106 16 76 32 174 34 207 1 7 7 10
15 7 7 -3 16 -26 19 -52z"/>
</g>
</svg>
